<svg xmlns="http://www.w3.org/2000/svg" viewBox="0 0 48 48" fill="none">
  <g clip-path="url(#clip0_7444_2848)">
    <path opacity="0.33" fill-rule="evenodd" clip-rule="evenodd" d="M30.2555 0.828423L29.2219 4.68689C28.6597 4.53582 28.0923 4.41429 27.5114 4.31069C26.9306 4.2071 26.3561 4.12494 25.7763 4.07233L26.1404 0.0944611C26.8303 0.15655 27.5247 0.249928 28.2138 0.37284C28.9029 0.495752 29.5868 0.648198 30.2555 0.828423Z" fill="#3758F9"/>
    <path opacity="0.38" fill-rule="evenodd" clip-rule="evenodd" d="M36.045 3.23213L34.0361 6.69316C33.0431 6.10974 31.9932 5.61774 30.8863 5.21717L32.2574 1.45954C33.5837 1.93988 34.8477 2.54117 36.045 3.23213Z" fill="#3758F9"/>
    <path opacity="0.42" fill-rule="evenodd" clip-rule="evenodd" d="M41.0092 7.06352L38.1708 9.87886C37.3532 9.05246 36.4607 8.30413 35.505 7.62577L37.8142 4.36051C38.9591 5.17419 40.0274 6.07578 41.0092 7.06352Z" fill="#3758F9"/>
    <path opacity="0.5" fill-rule="evenodd" clip-rule="evenodd" d="M44.8051 12.0371L41.3414 14.0298C40.7593 13.022 40.0978 12.0609 39.3533 11.1663L42.4207 8.60507C43.316 9.67897 44.1168 10.8274 44.8051 12.0371Z" fill="#3758F9"/>
    <path opacity="0.55" fill-rule="evenodd" clip-rule="evenodd" d="M47.2056 17.8284L43.3353 18.8548C43.039 17.7252 42.6355 16.6273 42.1508 15.586L45.7739 13.896C46.3613 15.1587 46.8379 16.4728 47.2056 17.8284Z" fill="#3758F9"/>
    <path opacity="0.6" fill-rule="evenodd" clip-rule="evenodd" d="M48.0046 24.0458L44.0047 24.0333C44.0115 22.8562 43.903 21.6992 43.7104 20.5576L47.6508 19.879C47.887 21.2314 48.0124 22.6353 48.0046 24.0458Z" fill="#3758F9"/>
    <path opacity="0.65" fill-rule="evenodd" clip-rule="evenodd" d="M47.6262 28.2144C47.5033 28.9035 47.3508 29.5873 47.1706 30.2561L43.3041 29.2109C43.4534 28.6586 43.5847 28.0928 43.6883 27.512C43.7919 26.9312 43.866 26.3451 43.9169 25.7751L47.9046 26.141C47.8442 26.821 47.7509 27.5154 47.6262 28.2144Z" fill="#3758F9"/>
    <path opacity="0.7" fill-rule="evenodd" clip-rule="evenodd" d="M46.5422 32.2463C46.0601 33.5824 45.4588 34.8465 44.7679 36.0437L41.3069 34.0348C41.8804 33.0401 42.384 31.9821 42.7846 30.8752L46.5422 32.2463Z" fill="#3758F9"/>
    <path opacity="0.75" fill-rule="evenodd" clip-rule="evenodd" d="M43.6422 37.8034C42.8267 38.9582 41.9252 40.0265 40.9392 40.9985L38.1221 38.1699C38.9386 37.3505 39.6968 36.4598 40.3653 35.5023L43.6422 37.8034Z" fill="#3758F9"/>
    <path opacity="0.8" fill-rule="evenodd" clip-rule="evenodd" d="M39.3853 42.4075C38.3213 43.3046 37.1728 44.1054 35.9614 44.8036L33.9686 41.3398C34.9765 40.7578 35.9295 40.0846 36.8241 39.3402L39.3853 42.4075Z" fill="#3758F9"/>
    <path opacity="0.95" fill-rule="evenodd" clip-rule="evenodd" d="M34.1028 45.7725C32.8401 46.3599 31.5259 46.8366 30.1721 47.1944L29.1341 43.3322C30.2655 43.0261 31.3616 42.6324 32.4145 42.1397L34.1028 45.7725Z" fill="#3758F9"/>
    <path fill-rule="evenodd" clip-rule="evenodd" d="M28.1229 47.6413C26.7588 47.8856 25.3666 48.0029 23.9543 48.005L23.9668 44.005C25.1457 44.002 26.3009 43.9033 27.4326 43.709L28.1229 47.6413Z" fill="#3758F9"/>
    <path opacity="0.05" fill-rule="evenodd" clip-rule="evenodd" d="M21.8598 47.9056C21.17 47.8435 20.4756 47.7502 19.7864 47.6272C19.0973 47.5043 18.4135 47.3519 17.7447 47.1717L18.78 43.3034C19.3422 43.4544 19.908 43.5858 20.4888 43.6894C21.0696 43.793 21.6459 43.8653 22.2257 43.9179L21.8598 47.9056Z" fill="#3758F9"/>
    <path opacity="0.07" fill-rule="evenodd" clip-rule="evenodd" d="M17.1157 42.783L15.7446 46.5406C14.4201 46.0504 13.1542 45.459 11.9587 44.7581L13.9659 41.307C14.9606 41.8805 16.0106 42.3725 17.1157 42.783Z" fill="#3758F9"/>
    <path opacity="0.09" fill-rule="evenodd" clip-rule="evenodd" d="M12.4965 40.3645L10.1873 43.6297C9.04058 42.8259 7.97229 41.9243 6.99047 40.9366L9.83067 38.1114C10.6483 38.9378 11.5407 39.6861 12.4965 40.3645Z" fill="#3758F9"/>
    <path opacity="0.11" fill-rule="evenodd" clip-rule="evenodd" d="M8.64897 36.8237L5.5816 39.3849C4.68625 38.311 3.88547 37.1626 3.19717 35.9529L6.6609 33.9602C7.24297 34.968 7.90449 35.9291 8.64897 36.8237Z" fill="#3758F9"/>
    <path opacity="0.13" fill-rule="evenodd" clip-rule="evenodd" d="M5.85004 32.414L2.22875 34.0943C1.63959 32.8414 1.16293 31.5273 0.797005 30.1618L4.66735 29.1354C4.96362 30.265 5.3671 31.3629 5.85004 32.414Z" fill="#3758F9"/>
    <path opacity="0.15" fill-rule="evenodd" clip-rule="evenodd" d="M4.29026 27.4326L0.348117 28.1211C0.113685 26.7588 -0.0135221 25.3648 -0.00396891 23.9444L3.99597 23.957C3.98918 25.1341 4.09595 26.3009 4.29026 27.4326Z" fill="#3758F9"/>
    <path opacity="0.17" fill-rule="evenodd" clip-rule="evenodd" d="M4.30916 20.4884C4.20556 21.0692 4.13325 21.6455 4.08239 22.2154L0.0929215 21.8594C0.15501 21.1696 0.248388 20.4752 0.371301 19.786C0.494213 19.0969 0.648415 18.4032 0.826883 17.7443L4.69519 18.7796C4.54588 19.332 4.41275 19.9076 4.30916 20.4884Z" fill="#3758F9"/>
    <path opacity="0.19" fill-rule="evenodd" clip-rule="evenodd" d="M6.69397 13.9553C6.11864 14.9599 5.6168 16.0081 5.21622 17.1149L1.45859 15.7438C1.93893 14.4176 2.54198 13.1437 3.23119 11.9562L6.69397 13.9553Z" fill="#3758F9"/>
    <path opacity="0.21" fill-rule="evenodd" clip-rule="evenodd" d="M9.87863 9.83035C9.06383 10.6399 8.30565 11.5306 7.63714 12.4881L4.36028 10.1869C5.17395 9.04201 6.07554 7.97372 7.06328 6.99191L9.87863 9.83035Z" fill="#3758F9"/>
    <path opacity="0.25" fill-rule="evenodd" clip-rule="evenodd" d="M14.0298 6.65017C13.0219 7.23224 12.0689 7.90536 11.1743 8.64984L8.61307 5.58247C9.67712 4.68537 10.8256 3.88458 12.037 3.18644L14.0298 6.65017Z" fill="#3758F9"/>
    <path opacity="0.28" fill-rule="evenodd" clip-rule="evenodd" d="M18.8673 4.65805C17.736 4.96415 16.6399 5.3578 15.587 5.85058L13.8969 2.22753C15.1596 1.64013 16.4738 1.16347 17.8294 0.795788L18.8673 4.65805Z" fill="#3758F9"/>
    <path opacity="0.3" fill-rule="evenodd" clip-rule="evenodd" d="M24.035 3.99497C22.8579 3.98818 21.7026 4.08686 20.5692 4.291L19.8807 0.348865C21.243 0.114433 22.637 -0.0127737 24.0475 -0.00497648L24.035 3.99497Z" fill="#3758F9"/>
  </g>
  <defs>
    <clipPath id="clip0_7444_2848">
      <rect width="48" height="48" fill="white"/>
    </clipPath>
  </defs>
</svg>