<svg xmlns="http://www.w3.org/2000/svg" viewBox="0 0 52 52" fill="none">
  <g clip-path="url(#clip0_7444_2967)">
    <path opacity="0.21" fill-rule="evenodd" clip-rule="evenodd" d="M19.6676 4.92937C19.3897 5.00665 19.1182 5.09654 18.8436 5.19594C17.8018 5.54897 16.6669 4.99805 16.3044 3.95313C15.9418 2.9082 16.5023 1.77647 17.5472 1.41393C17.8692 1.29849 18.188 1.19254 18.5133 1.09922C19.5743 0.784035 20.684 1.37936 21.0118 2.43394C21.327 3.49491 20.7286 4.61419 19.6676 4.92937Z" fill="#3758F9"/>
    <path opacity="0.25" fill-rule="evenodd" clip-rule="evenodd" d="M26.4886 3.9974C26.1945 3.9957 25.913 3.98761 25.6253 3.99853C24.5249 4.01665 23.6129 3.1389 23.5884 2.02589C23.5703 0.925491 24.4575 0.0166559 25.5579 -0.00146568C25.8963 -0.00631059 26.2346 -0.0111551 26.5793 -0.00338251C27.6863 0.0227358 28.5542 0.938654 28.528 2.04559C28.5114 3.15565 27.5955 4.02352 26.4886 3.9974Z" fill="#3758F9"/>
    <path opacity="0.28" fill-rule="evenodd" clip-rule="evenodd" d="M35.8091 4.00137C35.4443 5.04991 34.3054 5.60265 33.26 5.22838L32.4428 4.96048C31.3787 4.64322 30.7881 3.52353 31.1148 2.46253C31.4385 1.41103 32.5487 0.817318 33.6097 1.14409C33.7743 1.18754 33.9359 1.24049 34.0974 1.29345C34.259 1.34641 34.4205 1.39936 34.5789 1.46182C35.6275 1.8266 36.1707 2.96233 35.8091 4.00137Z" fill="#3758F9"/>
    <path opacity="0.3" fill-rule="evenodd" clip-rule="evenodd" d="M42.1385 8.10625C41.4598 8.98875 40.2052 9.15627 39.3291 8.49022C39.1037 8.31109 38.872 8.15096 38.634 7.97822C37.7264 7.34394 37.502 6.10227 38.1458 5.1978C38.7801 4.29023 40.0218 4.06585 40.9293 4.70013C41.2118 4.89795 41.4816 5.10216 41.7514 5.30637C42.6275 5.97242 42.8045 7.23014 42.1385 8.10625Z" fill="#3758F9"/>
    <path opacity="0.33" fill-rule="evenodd" clip-rule="evenodd" d="M46.8652 13.9711C45.9545 14.5986 44.7137 14.3708 44.0831 13.4695C43.9206 13.2268 43.755 12.9936 43.5768 12.7668C42.9083 11.8847 43.0886 10.6284 43.9707 9.9599C44.8593 9.30405 46.1061 9.48126 46.7746 10.3634C46.9814 10.6312 47.1757 10.9053 47.3669 11.189C47.9944 12.0998 47.776 13.3436 46.8652 13.9711Z" fill="#3758F9"/>
    <path opacity="0.38" fill-rule="evenodd" clip-rule="evenodd" d="M49.5668 21.013C48.5058 21.3281 47.3865 20.7297 47.0713 19.6687C46.991 19.4003 46.9042 19.1193 46.8048 18.8447C46.4517 17.8029 47.0027 16.668 48.0476 16.3055C49.0925 15.943 50.2242 16.5034 50.5868 17.5483C50.7022 17.8703 50.8082 18.1892 50.9015 18.5144C51.2167 19.5754 50.6214 20.6852 49.5668 21.013Z" fill="#3758F9"/>
    <path opacity="0.42" fill-rule="evenodd" clip-rule="evenodd" d="M49.9504 28.5371C48.853 28.5141 47.9756 27.5951 48.0017 26.4882C48.0003 26.2036 48.0115 25.9126 48.0006 25.6249C47.9825 24.5245 48.8602 23.6125 49.9701 23.5975C51.0736 23.5699 51.9825 24.4571 52.0006 25.5575C52.0054 25.8959 52.0103 26.2342 52.0025 26.579C51.9764 27.6859 51.0573 28.5633 49.9504 28.5371Z" fill="#3758F9"/>
    <path opacity="0.55" fill-rule="evenodd" clip-rule="evenodd" d="M50.8668 33.6144L50.5491 34.5837C50.1748 35.6291 49.0391 36.1723 48 35.8107C46.9515 35.4459 46.3987 34.3071 46.773 33.2616L47.0409 32.4444C47.3582 31.3803 48.4779 30.7897 49.5389 31.1165C50.5904 31.4401 51.1841 32.5503 50.8668 33.6144Z" fill="#3758F9"/>
    <path opacity="0.65" fill-rule="evenodd" clip-rule="evenodd" d="M47.2997 40.9277C47.1019 41.2102 46.8977 41.48 46.6935 41.7498C46.0243 42.6354 44.7697 42.8029 43.8936 42.1369C43.0111 41.4582 42.8436 40.2036 43.5097 39.3275C43.6888 39.1021 43.8489 38.8704 44.0217 38.6324C44.6559 37.7248 45.904 37.513 46.8021 38.1442C47.7096 38.7785 47.934 40.0201 47.2997 40.9277Z" fill="#3758F9"/>
    <path opacity="0.7" fill-rule="evenodd" clip-rule="evenodd" d="M41.6349 46.7744C41.3671 46.9813 41.093 47.1755 40.8093 47.3667C39.8954 48.0037 38.6546 47.7758 38.0271 46.8651C37.3996 45.9543 37.6275 44.7135 38.5288 44.0829C38.7715 43.9204 39.0046 43.7548 39.2314 43.5766C40.1136 42.9081 41.3699 43.0884 42.0384 43.9706C42.6942 44.8591 42.517 46.1059 41.6349 46.7744Z" fill="#3758F9"/>
    <path opacity="0.8" fill-rule="evenodd" clip-rule="evenodd" d="M34.4533 50.5861C34.1314 50.7016 33.8125 50.8075 33.4872 50.9008C32.4263 51.216 31.3165 50.6207 30.9887 49.5661C30.6735 48.5051 31.2719 47.3859 32.3329 47.0707C32.6108 46.9934 32.8823 46.9035 33.157 46.8041C34.1988 46.4511 35.3336 47.002 35.6962 48.0469C36.0587 49.0919 35.4983 50.2236 34.4533 50.5861Z" fill="#3758F9"/>
    <path fill-rule="evenodd" clip-rule="evenodd" d="M26.4434 52.0014C26.1051 52.0063 25.7667 52.0111 25.422 52.0034C24.315 51.9772 23.4472 51.0613 23.4733 49.9544C23.4868 48.8538 24.4058 47.9765 25.5128 48.0026C25.8038 48.0138 26.0884 48.0124 26.3761 48.0014C27.4765 47.9833 28.3884 48.8611 28.4129 49.9741C28.431 51.0745 27.5438 51.9833 26.4434 52.0014Z" fill="#3758F9"/>
    <path opacity="0.05" fill-rule="evenodd" clip-rule="evenodd" d="M20.8847 49.5375C20.561 50.589 19.4508 51.1827 18.3867 50.8654L17.4175 50.5477C16.372 50.1734 15.8288 49.0377 16.1904 47.9986C16.5552 46.9501 17.691 46.4069 18.7395 46.7716L19.5567 47.0395C20.6177 47.3663 21.2114 48.4765 20.8847 49.5375Z" fill="#3758F9"/>
    <path opacity="0.07" fill-rule="evenodd" clip-rule="evenodd" d="M13.8557 46.802C13.2215 47.7096 11.9798 47.934 11.0722 47.2997C10.7898 47.1019 10.52 46.8977 10.2501 46.6935C9.37403 46.0274 9.19702 44.7697 9.86307 43.8936C10.5417 43.0111 11.7963 42.8436 12.6725 43.5096C12.8979 43.6888 13.1264 43.8584 13.3676 44.0216C14.2751 44.6559 14.4964 45.9071 13.8557 46.802Z" fill="#3758F9"/>
    <path opacity="0.09" fill-rule="evenodd" clip-rule="evenodd" d="M8.02963 42.0401C7.14111 42.696 5.89428 42.5188 5.22581 41.6367C5.01892 41.3689 4.82466 41.0947 4.63351 40.8111C4.00601 39.9003 4.22434 38.6564 5.13513 38.0289C6.04592 37.4014 7.28668 37.6293 7.9173 38.5305C8.07979 38.7732 8.24539 39.0064 8.42361 39.2332C9.09208 40.1153 8.91175 41.3717 8.02963 42.0401Z" fill="#3758F9"/>
    <path opacity="0.11" fill-rule="evenodd" clip-rule="evenodd" d="M3.95281 35.6948C2.90789 36.0574 1.77304 35.5064 1.41362 34.452C1.29817 34.13 1.19223 33.8112 1.09891 33.4859C0.783723 32.4249 1.37904 31.3152 2.43363 30.9874C3.4946 30.6722 4.61387 31.2706 4.92906 32.3316C5.00633 32.6095 5.09623 32.881 5.19563 33.1556C5.54866 34.1974 4.99774 35.3323 3.95281 35.6948Z" fill="#3758F9"/>
    <path opacity="0.13" fill-rule="evenodd" clip-rule="evenodd" d="M2.02707 28.4118C0.926676 28.4299 0.0147249 27.5522 -0.000281568 26.4423C-0.00512651 26.1039 -0.00997093 25.7656 -0.00219836 25.4209C0.02392 24.3139 0.939838 23.4461 2.04678 23.4722C3.14422 23.4952 4.0247 24.4047 3.99858 25.5116C3.99688 25.8057 3.9888 26.0872 3.99971 26.375C4.01784 27.4753 3.14009 28.3873 2.02707 28.4118Z" fill="#3758F9"/>
    <path opacity="0.19" fill-rule="evenodd" clip-rule="evenodd" d="M13.4677 7.91696C13.225 8.07945 12.9887 8.25455 12.7651 8.42326C11.8829 9.09174 10.6266 8.91141 9.95812 8.02928C9.30227 7.14077 9.47948 5.89394 10.3616 5.22546C10.6294 5.01858 10.9035 4.82432 11.1872 4.63317C12.098 4.00566 13.3419 4.224 13.9694 5.13479C14.5969 6.04558 14.369 7.28634 13.4677 7.91696Z" fill="#3758F9"/>
    <path opacity="0.15" fill-rule="evenodd" clip-rule="evenodd" d="M5.2279 18.7381L4.96 19.5553C4.64274 20.6194 3.52305 21.21 2.46205 20.8832C1.41055 20.5596 0.816842 19.4494 1.13411 18.3853L1.45184 17.416C1.82612 16.3706 2.96185 15.8274 4.00089 16.189C5.04943 16.5538 5.60218 17.6926 5.2279 18.7381Z" fill="#3758F9"/>
    <path opacity="0.17" fill-rule="evenodd" clip-rule="evenodd" d="M8.49082 12.6723C8.31169 12.8978 8.14845 13.1389 7.97882 13.3674C7.34455 14.275 6.09337 14.4963 5.1953 13.8651C4.28772 13.2308 4.06646 11.9797 4.70074 11.0721C4.89856 10.7897 5.10277 10.5198 5.30697 10.25C5.97303 9.37392 7.23075 9.1969 8.10375 9.87246C8.98936 10.5416 9.15688 11.7962 8.49082 12.6723Z" fill="#3758F9"/>
  </g>
  <defs>
    <clipPath id="clip0_7444_2967">
      <rect width="52" height="52" fill="white"/>
    </clipPath>
  </defs>
</svg>