<svg width="114" height="22" viewBox="0 0 114 22" fill="none" xmlns="http://www.w3.org/2000/svg">
<g clip-path="url(#clip0_15398_26557)">
<mask id="mask0_15398_26557" style="mask-type:luminance" maskUnits="userSpaceOnUse" x="0" y="0" width="114" height="22">
<path d="M0.625 0.669922H113.209V21.6856H0.625V0.669922Z" fill="white"/>
</mask>
<g mask="url(#mask0_15398_26557)">
<path d="M21.6408 0.669922V21.6857H8.7334V17.4147H17.6525V13.2568H8.7334V9.15541H17.6525V5.05409H4.66975V21.6857H0.625V0.669922H21.6408Z" fill="#9CA3AF"/>
<path d="M31.3945 18.3077V4.64746H39.4638V7.02825H33.7754V9.79931H38.5272V12.1801H33.7754V18.3077H31.3945Z" fill="#9CA3AF"/>
<path d="M44.3981 18.5616C43.5004 18.5616 42.6808 18.3306 41.9393 17.8688C41.2043 17.4069 40.6156 16.7889 40.1733 16.0149C39.7373 15.2343 39.5195 14.3725 39.5195 13.4292C39.5195 12.7137 39.6464 12.0469 39.9 11.429C40.1537 10.8045 40.5017 10.2581 40.944 9.78972C41.3928 9.31484 41.9132 8.94406 42.5053 8.67739C43.0972 8.41072 43.7281 8.27734 44.3981 8.27734C45.2959 8.27734 46.1122 8.50829 46.8472 8.97011C47.5888 9.43194 48.1775 10.0532 48.6133 10.8338C49.0556 11.6143 49.2767 12.4795 49.2767 13.4292C49.2767 14.1383 49.1499 14.8018 48.8963 15.4197C48.6426 16.0376 48.2913 16.584 47.8425 17.0589C47.4001 17.5273 46.883 17.8949 46.291 18.1615C45.7056 18.4282 45.0746 18.5616 44.3981 18.5616ZM44.3981 16.1807C44.873 16.1807 45.299 16.0539 45.6763 15.8003C46.0536 15.5466 46.3497 15.2115 46.5643 14.7952C46.7855 14.3789 46.896 13.9237 46.896 13.4292C46.896 12.9218 46.7822 12.46 46.5545 12.0436C46.3333 11.6209 46.0309 11.2859 45.6471 11.0387C45.2698 10.785 44.8535 10.6581 44.3981 10.6581C43.9298 10.6581 43.507 10.785 43.1297 11.0387C42.7524 11.2923 42.4532 11.6306 42.232 12.0534C42.0108 12.4762 41.9003 12.9348 41.9003 13.4292C41.9003 13.9431 42.0141 14.4082 42.2418 14.8246C42.4694 15.2408 42.7719 15.5726 43.1492 15.8197C43.533 16.0604 43.9493 16.1807 44.3981 16.1807Z" fill="#9CA3AF"/>
<path d="M56.7294 10.9704C56.5537 10.8533 56.3618 10.7589 56.1537 10.6874C55.952 10.6159 55.7275 10.5801 55.4805 10.5801C55.0055 10.5801 54.5957 10.7037 54.251 10.9509C53.9127 11.198 53.6525 11.5298 53.4704 11.9462C53.2883 12.3559 53.1972 12.8113 53.1972 13.3121V18.3079H50.7969V8.55057H53.1777V9.70193C53.5029 9.27261 53.89 8.9311 54.3388 8.67741C54.7941 8.42372 55.308 8.29688 55.8804 8.29688C56.1015 8.29688 56.313 8.30341 56.5147 8.31639C56.7228 8.32937 56.9212 8.36517 57.1099 8.42372L56.7294 10.9704Z" fill="#9CA3AF"/>
<path d="M58.2305 18.309V8.55168H60.6112V9.53717C60.8974 9.2184 61.1999 8.96148 61.5186 8.76633C61.844 8.56466 62.2114 8.46387 62.6212 8.46387C63.2847 8.46387 63.8896 8.60369 64.4361 8.88343C64.989 9.15664 65.4638 9.54693 65.8606 10.0543C66.2575 9.54693 66.7324 9.15664 67.2852 8.88343C67.8382 8.60369 68.4431 8.46387 69.1001 8.46387C69.9392 8.46387 70.6873 8.672 71.3442 9.08833C72.0077 9.50466 72.5315 10.0641 72.9151 10.7666C73.299 11.4625 73.4909 12.2334 73.4909 13.0791V18.309H71.11V13.0791C71.11 12.6627 71.0256 12.2887 70.8564 11.957C70.6873 11.6187 70.4499 11.3488 70.1441 11.1472C69.8449 10.9454 69.4969 10.8447 69.1001 10.8447C68.7033 10.8447 68.3487 10.9454 68.0365 11.1472C67.7308 11.3488 67.4902 11.6187 67.3145 11.957C67.1388 12.2887 67.051 12.6627 67.051 13.0791V18.309H64.6702V13.0791C64.6702 12.6627 64.5792 12.2887 64.3971 11.957C64.2214 11.6187 63.9775 11.3488 63.6652 11.1472C63.3595 10.9454 63.0115 10.8447 62.6212 10.8447C62.2439 10.8447 61.9025 10.9487 61.5967 11.1568C61.291 11.365 61.0503 11.6415 60.8746 11.9862C60.699 12.331 60.6112 12.7083 60.6112 13.1181V18.309H58.2305Z" fill="#9CA3AF"/>
<path d="M76.2305 18.3077V4.64746H81.2067C81.9287 4.64746 82.5787 4.79706 83.1582 5.09629C83.7436 5.38901 84.2051 5.81182 84.5437 6.36475C84.8882 6.91115 85.0608 7.55838 85.0608 8.30645C85.0608 8.63819 85.012 8.97318 84.9144 9.31145C84.8168 9.64973 84.6668 9.95543 84.4656 10.2286C84.2638 10.4953 84.0033 10.6938 83.6851 10.8238C84.1076 10.9279 84.4521 11.1166 84.7193 11.3898C84.9858 11.6629 85.1937 11.9849 85.3437 12.3557C85.4931 12.7199 85.5937 13.094 85.6462 13.4778C85.7048 13.8551 85.734 14.2064 85.734 14.5316C85.734 15.2537 85.5547 15.8976 85.1975 16.4636C84.8394 17.0295 84.3583 17.4783 83.7534 17.8101C83.1544 18.1418 82.4909 18.3077 81.7628 18.3077H76.2305ZM78.6112 16.2684H81.5189C81.9092 16.2684 82.2604 16.174 82.5727 15.9855C82.8849 15.7969 83.1348 15.5366 83.324 15.2048C83.5124 14.8731 83.607 14.4958 83.607 14.073C83.607 13.7087 83.5124 13.364 83.324 13.0387C83.1348 12.7136 82.8849 12.4501 82.5727 12.2484C82.2604 12.0467 81.9092 11.946 81.5189 11.946H78.6112V16.2684ZM78.6112 9.93592H80.9335C81.4145 9.93592 81.8244 9.78633 82.1629 9.48709C82.5074 9.18783 82.68 8.79108 82.68 8.29669C82.68 7.7698 82.5074 7.373 82.1629 7.1063C81.8244 6.83309 81.4145 6.6965 80.9335 6.6965H78.6112V9.93592Z" fill="#9CA3AF"/>
<path d="M91.9763 18.5616C91.0787 18.5616 90.2591 18.3306 89.5174 17.8688C88.7826 17.4069 88.1942 16.7889 87.7514 16.0149C87.3161 15.2343 87.0977 14.3725 87.0977 13.4292C87.0977 12.7137 87.2245 12.0469 87.4781 11.429C87.7319 10.8045 88.0802 10.2581 88.5223 9.78972C88.9711 9.31484 89.4919 8.94406 90.0834 8.67739C90.6756 8.41072 91.3068 8.27734 91.9763 8.27734C92.874 8.27734 93.6906 8.50829 94.4254 8.97011C95.1669 9.43194 95.7562 10.0532 96.1915 10.8338C96.6343 11.6143 96.855 12.4795 96.855 13.4292C96.855 14.1383 96.7282 14.8018 96.4744 15.4197C96.2207 16.0376 95.8695 16.584 95.4206 17.0589C94.9786 17.5273 94.4614 17.8949 93.8693 18.1615C93.2838 18.4282 92.6533 18.5616 91.9763 18.5616ZM91.9763 16.1807C92.4515 16.1807 92.8777 16.0539 93.2546 15.8003C93.6321 15.5466 93.9278 15.2115 94.1424 14.7952C94.3638 14.3789 94.4741 13.9237 94.4741 13.4292C94.4741 12.9218 94.3608 12.46 94.1327 12.0436C93.912 11.6209 93.6095 11.2859 93.2252 11.0387C92.8485 10.785 92.4319 10.6581 91.9763 10.6581C91.508 10.6581 91.0854 10.785 90.7079 11.0387C90.3311 11.2923 90.0316 11.6306 89.8101 12.0534C89.5895 12.4762 89.4784 12.9348 89.4784 13.4292C89.4784 13.9431 89.5926 14.4082 89.8199 14.8246C90.0481 15.2408 90.3506 15.5726 90.7273 15.8197C91.1117 16.0604 91.5275 16.1807 91.9763 16.1807Z" fill="#9CA3AF"/>
<path d="M98.3633 18.3088V3.67285H100.744V18.3088H98.3633Z" fill="#9CA3AF"/>
<path d="M110.533 3.67285H112.913V18.3088H110.533V17.0891C110.22 17.525 109.827 17.8795 109.352 18.1527C108.877 18.4259 108.327 18.5625 107.703 18.5625C106.994 18.5625 106.331 18.4292 105.712 18.1624C105.094 17.8958 104.548 17.5283 104.073 17.0599C103.605 16.585 103.238 16.0386 102.97 15.4207C102.704 14.8027 102.57 14.1392 102.57 13.4302C102.57 12.7212 102.704 12.0576 102.97 11.4397C103.238 10.8217 103.605 10.2785 104.073 9.8102C104.548 9.33532 105.094 8.96454 105.712 8.69786C106.331 8.43119 106.994 8.29781 107.703 8.29781C108.327 8.29781 108.877 8.43442 109.352 8.70762C109.827 8.9743 110.22 9.32886 110.533 9.77117V3.67285ZM107.732 16.2695C108.239 16.2695 108.688 16.1427 109.078 15.889C109.469 15.6353 109.775 15.2938 109.996 14.8645C110.217 14.4287 110.327 13.9505 110.327 13.4302C110.327 12.9033 110.217 12.4251 109.996 11.9958C109.775 11.56 109.466 11.2153 109.069 10.9616C108.678 10.7079 108.233 10.581 107.732 10.581C107.231 10.581 106.776 10.7111 106.366 10.9713C105.956 11.225 105.628 11.5665 105.38 11.9958C105.134 12.4251 105.01 12.9033 105.01 13.4302C105.01 13.957 105.134 14.4352 105.38 14.8645C105.628 15.2938 105.956 15.6353 106.366 15.889C106.782 16.1427 107.238 16.2695 107.732 16.2695Z" fill="#9CA3AF"/>
</g>
</g>
<defs>
<clipPath id="clip0_15398_26557">
<rect width="113.3" height="22" fill="white"/>
</clipPath>
</defs>
</svg>
