<svg width="114" height="22" viewBox="0 0 114 22" fill="none" xmlns="http://www.w3.org/2000/svg">
<g clip-path="url(#clip0_13465_9102)">
<mask id="mask0_13465_9102" style="mask-type:luminance" maskUnits="userSpaceOnUse" x="0" y="0" width="114" height="22">
<path d="M0.625 0.669922H113.209V21.6856H0.625V0.669922Z" fill="white"/>
</mask>
<g mask="url(#mask0_13465_9102)">
<path d="M21.6408 0.669922V21.6857H8.7334V17.4147H17.6525V13.2568H8.7334V9.15541H17.6525V5.05409H4.66975V21.6857H0.625V0.669922H21.6408Z" fill="#111827"/>
<path d="M31.3965 18.3077V4.64746H39.4658V7.02825H33.7773V9.79931H38.5291V12.1801H33.7773V18.3077H31.3965Z" fill="#111827"/>
<path d="M44.4001 18.5616C43.5024 18.5616 42.6828 18.3306 41.9413 17.8688C41.2062 17.4069 40.6175 16.7889 40.1752 16.0149C39.7393 15.2343 39.5215 14.3725 39.5215 13.4292C39.5215 12.7137 39.6483 12.0469 39.902 11.429C40.1556 10.8045 40.5037 10.2581 40.946 9.78972C41.3948 9.31484 41.9152 8.94406 42.5072 8.67739C43.0991 8.41072 43.7301 8.27734 44.4001 8.27734C45.2978 8.27734 46.1141 8.50829 46.8491 8.97011C47.5908 9.43194 48.1795 10.0532 48.6153 10.8338C49.0576 11.6143 49.2787 12.4795 49.2787 13.4292C49.2787 14.1383 49.1519 14.8018 48.8982 15.4197C48.6446 16.0376 48.2932 16.584 47.8444 17.0589C47.4021 17.5273 46.885 17.8949 46.293 18.1615C45.7076 18.4282 45.0766 18.5616 44.4001 18.5616ZM44.4001 16.1807C44.875 16.1807 45.301 16.0539 45.6783 15.8003C46.0556 15.5466 46.3516 15.2115 46.5662 14.7952C46.7874 14.3789 46.898 13.9237 46.898 13.4292C46.898 12.9218 46.7841 12.46 46.5564 12.0436C46.3352 11.6209 46.0328 11.2859 45.649 11.0387C45.2717 10.785 44.8555 10.6581 44.4001 10.6581C43.9317 10.6581 43.509 10.785 43.1317 11.0387C42.7544 11.2923 42.4552 11.6306 42.234 12.0534C42.0128 12.4762 41.9022 12.9348 41.9022 13.4292C41.9022 13.9431 42.0161 14.4082 42.2438 14.8246C42.4714 15.2408 42.7739 15.5726 43.1512 15.8197C43.5349 16.0604 43.9513 16.1807 44.4001 16.1807Z" fill="#111827"/>
<path d="M56.7294 10.9704C56.5537 10.8533 56.3618 10.7589 56.1537 10.6874C55.952 10.6159 55.7275 10.5801 55.4805 10.5801C55.0055 10.5801 54.5957 10.7037 54.251 10.9509C53.9127 11.198 53.6525 11.5298 53.4704 11.9462C53.2883 12.3559 53.1972 12.8113 53.1972 13.3121V18.3079H50.7969V8.55057H53.1777V9.70193C53.5029 9.27261 53.89 8.9311 54.3388 8.67741C54.7941 8.42372 55.308 8.29688 55.8804 8.29688C56.1015 8.29688 56.313 8.30341 56.5147 8.31639C56.7228 8.32937 56.9212 8.36517 57.1099 8.42372L56.7294 10.9704Z" fill="#111827"/>
<path d="M58.2324 18.309V8.55168H60.6132V9.53717C60.8994 9.2184 61.2019 8.96148 61.5205 8.76633C61.8459 8.56466 62.2133 8.46387 62.6232 8.46387C63.2867 8.46387 63.8916 8.60369 64.4381 8.88343C64.9909 9.15664 65.4658 9.54693 65.8626 10.0543C66.2595 9.54693 66.7343 9.15664 67.2872 8.88343C67.8401 8.60369 68.445 8.46387 69.1021 8.46387C69.9412 8.46387 70.6893 8.672 71.3462 9.08833C72.0097 9.50466 72.5334 10.0641 72.9171 10.7666C73.301 11.4625 73.4928 12.2334 73.4928 13.0791V18.309H71.112V13.0791C71.112 12.6627 71.0275 12.2887 70.8583 11.957C70.6893 11.6187 70.4519 11.3488 70.1461 11.1472C69.8469 10.9454 69.4988 10.8447 69.1021 10.8447C68.7053 10.8447 68.3507 10.9454 68.0385 11.1472C67.7328 11.3488 67.4921 11.6187 67.3164 11.957C67.1408 12.2887 67.053 12.6627 67.053 13.0791V18.309H64.6722V13.0791C64.6722 12.6627 64.5812 12.2887 64.399 11.957C64.2234 11.6187 63.9795 11.3488 63.6672 11.1472C63.3615 10.9454 63.0135 10.8447 62.6232 10.8447C62.2459 10.8447 61.9044 10.9487 61.5986 11.1568C61.293 11.365 61.0523 11.6415 60.8766 11.9862C60.7009 12.331 60.6132 12.7083 60.6132 13.1181V18.309H58.2324Z" fill="#111827"/>
<path d="M76.2285 18.3077V4.64746H81.2047C81.9267 4.64746 82.5767 4.79706 83.1562 5.09629C83.7416 5.38901 84.2032 5.81182 84.5418 6.36475C84.8863 6.91115 85.0589 7.55838 85.0589 8.30645C85.0589 8.63819 85.01 8.97318 84.9125 9.31145C84.8149 9.64973 84.6649 9.95543 84.4637 10.2286C84.2618 10.4953 84.0013 10.6938 83.6831 10.8238C84.1056 10.9279 84.4501 11.1166 84.7173 11.3898C84.9839 11.6629 85.1918 11.9849 85.3418 12.3557C85.4912 12.7199 85.5917 13.094 85.6443 13.4778C85.7028 13.8551 85.7321 14.2064 85.7321 14.5316C85.7321 15.2537 85.5528 15.8976 85.1955 16.4636C84.8374 17.0295 84.3563 17.4783 83.7514 17.8101C83.1525 18.1418 82.4889 18.3077 81.7609 18.3077H76.2285ZM78.6092 16.2684H81.517C81.9073 16.2684 82.2585 16.174 82.5708 15.9855C82.883 15.7969 83.1329 15.5366 83.3221 15.2048C83.5104 14.8731 83.605 14.4958 83.605 14.073C83.605 13.7087 83.5104 13.364 83.3221 13.0387C83.1329 12.7136 82.883 12.4501 82.5708 12.2484C82.2585 12.0467 81.9073 11.946 81.517 11.946H78.6092V16.2684ZM78.6092 9.93592H80.9316C81.4126 9.93592 81.8225 9.78633 82.1609 9.48709C82.5055 9.18783 82.678 8.79108 82.678 8.29669C82.678 7.7698 82.5055 7.373 82.1609 7.1063C81.8225 6.83309 81.4126 6.6965 80.9316 6.6965H78.6092V9.93592Z" fill="#111827"/>
<path d="M91.9743 18.5616C91.0767 18.5616 90.2571 18.3306 89.5155 17.8688C88.7807 17.4069 88.1923 16.7889 87.7494 16.0149C87.3142 15.2343 87.0957 14.3725 87.0957 13.4292C87.0957 12.7137 87.2225 12.0469 87.4762 11.429C87.73 10.8045 88.0782 10.2581 88.5203 9.78972C88.9691 9.31484 89.49 8.94406 90.0814 8.67739C90.6737 8.41072 91.3048 8.27734 91.9743 8.27734C92.872 8.27734 93.6887 8.50829 94.4235 8.97011C95.165 9.43194 95.7542 10.0532 96.1895 10.8338C96.6324 11.6143 96.853 12.4795 96.853 13.4292C96.853 14.1383 96.7262 14.8018 96.4724 15.4197C96.2188 16.0376 95.8675 16.584 95.4186 17.0589C94.9767 17.5273 94.4594 17.8949 93.8673 18.1615C93.2819 18.4282 92.6514 18.5616 91.9743 18.5616ZM91.9743 16.1807C92.4495 16.1807 92.8758 16.0539 93.2526 15.8003C93.6301 15.5466 93.9258 15.2115 94.1404 14.7952C94.3619 14.3789 94.4722 13.9237 94.4722 13.4292C94.4722 12.9218 94.3589 12.46 94.1308 12.0436C93.9101 11.6209 93.6076 11.2859 93.2232 11.0387C92.8465 10.785 92.4299 10.6581 91.9743 10.6581C91.506 10.6581 91.0834 10.785 90.7059 11.0387C90.3292 11.2923 90.0296 11.6306 89.8082 12.0534C89.5875 12.4762 89.4764 12.9348 89.4764 13.4292C89.4764 13.9431 89.5906 14.4082 89.818 14.8246C90.0461 15.2408 90.3486 15.5726 90.7254 15.8197C91.1097 16.0604 91.5255 16.1807 91.9743 16.1807Z" fill="#111827"/>
<path d="M98.3633 18.3088V3.67285H100.744V18.3088H98.3633Z" fill="#111827"/>
<path d="M110.533 3.67285H112.913V18.3088H110.533V17.0891C110.22 17.525 109.827 17.8795 109.352 18.1527C108.877 18.4259 108.327 18.5625 107.703 18.5625C106.994 18.5625 106.331 18.4292 105.712 18.1624C105.094 17.8958 104.548 17.5283 104.073 17.0599C103.605 16.585 103.238 16.0386 102.97 15.4207C102.704 14.8027 102.57 14.1392 102.57 13.4302C102.57 12.7212 102.704 12.0576 102.97 11.4397C103.238 10.8217 103.605 10.2785 104.073 9.8102C104.548 9.33532 105.094 8.96454 105.712 8.69786C106.331 8.43119 106.994 8.29781 107.703 8.29781C108.327 8.29781 108.877 8.43442 109.352 8.70762C109.827 8.9743 110.22 9.32886 110.533 9.77117V3.67285ZM107.732 16.2695C108.239 16.2695 108.688 16.1427 109.078 15.889C109.469 15.6353 109.775 15.2938 109.996 14.8645C110.217 14.4287 110.327 13.9505 110.327 13.4302C110.327 12.9033 110.217 12.4251 109.996 11.9958C109.775 11.56 109.466 11.2153 109.069 10.9616C108.678 10.7079 108.233 10.581 107.732 10.581C107.231 10.581 106.776 10.7111 106.366 10.9713C105.956 11.225 105.628 11.5665 105.38 11.9958C105.134 12.4251 105.01 12.9033 105.01 13.4302C105.01 13.957 105.134 14.4352 105.38 14.8645C105.628 15.2938 105.956 15.6353 106.366 15.889C106.782 16.1427 107.238 16.2695 107.732 16.2695Z" fill="#111827"/>
</g>
</g>
<defs>
<clipPath id="clip0_13465_9102">
<rect width="113.3" height="22" fill="white"/>
</clipPath>
</defs>
</svg>
