<svg width="106" height="22" viewBox="0 0 106 22" fill="none" xmlns="http://www.w3.org/2000/svg">
<g clip-path="url(#clip0_13465_9117)">
<path d="M22 11C22 4.92487 17.0751 0 11 0C4.92486 0 0 4.92487 0 11C0 17.0751 4.92486 22 11 22C17.0751 22 22 17.0751 22 11Z" fill="#111827"/>
<path d="M11.1751 4.125C12.917 4.125 14.5614 4.76857 15.8338 5.94187C15.9045 6.00694 15.9051 6.11741 15.8374 6.18523L13.1438 8.87872C13.0787 8.94398 12.9738 8.94556 12.9024 8.88709C12.416 8.48882 11.8125 8.27255 11.1762 8.27255C9.6701 8.27152 8.44549 9.49611 8.44549 11H4.29688C4.29688 7.20909 7.38308 4.125 11.1751 4.125Z" fill="white"/>
<path d="M8.44549 11C8.44549 12.4115 9.52399 13.5765 10.9007 13.7148C10.9925 13.724 11.0656 13.7993 11.0656 13.8916V17.7004C11.0656 17.7963 10.9864 17.874 10.8905 17.8701C7.22908 17.72 4.29688 14.6957 4.29688 11H8.44549Z" fill="white"/>
<path opacity="0.56" d="M15.2627 11.5459H13.6407C13.5457 11.5459 13.4688 11.6229 13.4688 11.7177V13.3387C13.4688 13.4337 13.5457 13.5106 13.6407 13.5106H15.2627C15.3577 13.5106 15.4346 13.4337 15.4346 13.3387V11.7177C15.4346 11.6229 15.3577 11.5459 15.2627 11.5459Z" fill="white"/>
<path opacity="0.4" d="M17.4462 11.5459H15.8242C15.7292 11.5459 15.6523 11.6229 15.6523 11.7177V13.3387C15.6523 13.4337 15.7292 13.5106 15.8242 13.5106H17.4462C17.5412 13.5106 17.6182 13.4337 17.6182 13.3387V11.7177C17.6182 11.6229 17.5412 11.5459 17.4462 11.5459Z" fill="white"/>
<path opacity="0.72" d="M15.2627 13.7285H13.6407C13.5457 13.7285 13.4688 13.8054 13.4688 13.9003V15.5213C13.4688 15.6162 13.5457 15.6932 13.6407 15.6932H15.2627C15.3577 15.6932 15.4346 15.6162 15.4346 15.5213V13.9003C15.4346 13.8054 15.3577 13.7285 15.2627 13.7285Z" fill="white"/>
<path opacity="0.88" d="M13.0791 13.7285H11.4571C11.3622 13.7285 11.2852 13.8054 11.2852 13.9003V15.5213C11.2852 15.6162 11.3622 15.6932 11.4571 15.6932H13.0791C13.1741 15.6932 13.251 15.6162 13.251 15.5213V13.9003C13.251 13.8054 13.1741 13.7285 13.0791 13.7285Z" fill="white"/>
<path opacity="0.56" d="M17.4462 13.7285H15.8242C15.7292 13.7285 15.6523 13.8054 15.6523 13.9003V15.5213C15.6523 15.6162 15.7292 15.6932 15.8242 15.6932H17.4462C17.5412 15.6932 17.6182 15.6162 17.6182 15.5213V13.9003C17.6182 13.8054 17.5412 13.7285 17.4462 13.7285Z" fill="white"/>
<path opacity="0.88" d="M15.2627 15.9102H13.6407C13.5457 15.9102 13.4688 15.987 13.4688 16.082V17.703C13.4688 17.7979 13.5457 17.8749 13.6407 17.8749H15.2627C15.3577 17.8749 15.4346 17.7979 15.4346 17.703V16.082C15.4346 15.987 15.3577 15.9102 15.2627 15.9102Z" fill="white"/>
<path opacity="0.96" d="M13.0791 15.9102H11.4571C11.3622 15.9102 11.2852 15.987 11.2852 16.082V17.703C11.2852 17.7979 11.3622 17.8749 11.4571 17.8749H13.0791C13.1741 17.8749 13.251 17.7979 13.251 17.703V16.082C13.251 15.987 13.1741 15.9102 13.0791 15.9102Z" fill="white"/>
<path opacity="0.72" d="M17.4462 15.9102H15.8242C15.7292 15.9102 15.6523 15.987 15.6523 16.082V17.703C15.6523 17.7979 15.7292 17.8749 15.8242 17.8749H17.4462C17.5412 17.8749 17.6182 17.7979 17.6182 17.703V16.082C17.6182 15.987 17.5412 15.9102 17.4462 15.9102Z" fill="white"/>
<path d="M34.7978 6.18761H36.5303V16.1206C36.5303 16.7559 36.3825 17.3462 36.0868 17.8916C35.7981 18.4435 35.4062 18.9214 34.9112 19.3258C34.4162 19.7364 33.8525 20.054 33.22 20.2786C32.5875 20.5096 31.9275 20.6251 31.24 20.6251C30.525 20.6251 29.8341 20.4743 29.1672 20.1728C28.5003 19.8775 27.9159 19.4797 27.4141 18.9792C26.9191 18.4852 26.5616 17.9301 26.3416 17.3141L27.9297 16.6404C28.0603 17.0831 28.2941 17.481 28.6309 17.8339C28.9747 18.1932 29.3734 18.4755 29.8272 18.6809C30.2878 18.8926 30.7587 18.9984 31.24 18.9984C31.6937 18.9984 32.1303 18.9247 32.5497 18.7771C32.9759 18.6295 33.3575 18.4242 33.6943 18.1611C34.0381 17.9045 34.3062 17.5997 34.4987 17.2468C34.6981 16.9003 34.7978 16.5249 34.7978 16.1206V14.2052C34.4472 14.757 33.9831 15.2062 33.4056 15.5527C32.835 15.8928 32.1681 16.0629 31.405 16.0629C30.6762 16.0629 29.9922 15.9313 29.3528 15.6683C28.7134 15.4052 28.1531 15.0426 27.6718 14.5806C27.1906 14.1122 26.8125 13.5732 26.5375 12.9636C26.2625 12.354 26.125 11.6995 26.125 11.0001C26.125 10.3007 26.2625 9.64619 26.5375 9.03661C26.8125 8.42061 27.1906 7.88161 27.6718 7.41961C28.1531 6.95119 28.7134 6.58544 29.3528 6.32236C29.9922 6.05927 30.6762 5.92773 31.405 5.92773C32.1681 5.92773 32.835 6.09777 33.4056 6.43786C33.9831 6.77794 34.4472 7.22711 34.7978 7.78536V6.18761ZM31.4153 14.494C32.0822 14.494 32.6597 14.3335 33.1478 14.0128C33.6428 13.6919 34.0243 13.2652 34.2925 12.7326C34.5606 12.2 34.6947 11.6225 34.6947 11.0001C34.6947 10.3584 34.5572 9.77452 34.2822 9.24836C34.0141 8.71577 33.6325 8.29227 33.1375 7.97786C32.6493 7.65702 32.0753 7.49661 31.4153 7.49661C30.7691 7.49661 30.1778 7.65384 29.6416 7.96827C29.1053 8.28268 28.6791 8.70618 28.3628 9.23877C28.0534 9.76493 27.8987 10.352 27.8987 11.0001C27.8987 11.6482 28.0568 12.2385 28.3732 12.7711C28.6963 13.2972 29.1225 13.7175 29.6518 14.032C30.1881 14.34 30.7759 14.494 31.4153 14.494Z" fill="#111827"/>
<path d="M38.1836 15.8125V6.18747H39.9161V7.39062C40.2805 6.94145 40.7411 6.58529 41.298 6.32222C41.8548 6.05272 42.4598 5.91797 43.113 5.91797C43.5118 5.91797 43.8968 5.96609 44.268 6.06234L43.5668 7.67938C43.2848 7.59595 43.0098 7.55422 42.7418 7.55422C42.2261 7.55422 41.7518 7.67295 41.3186 7.91037C40.8923 8.14137 40.552 8.45579 40.2977 8.85362C40.0433 9.25145 39.9161 9.6942 39.9161 10.1819V15.8125H38.1836Z" fill="#111827"/>
<path d="M52.4803 6.18747H54.2128V15.8125H52.4803L52.4082 14.1859C52.085 14.7441 51.6382 15.1965 51.0675 15.543C50.5037 15.8895 49.83 16.0627 49.0462 16.0627C48.29 16.0627 47.5819 15.9312 46.9219 15.6681C46.2619 15.3986 45.6775 15.0296 45.1687 14.5612C44.6669 14.0863 44.275 13.541 43.9932 12.925C43.7112 12.309 43.5703 11.6449 43.5703 10.9326C43.5703 10.246 43.7078 9.59795 43.9828 8.98837C44.2578 8.37879 44.6394 7.8462 45.1275 7.39062C45.6225 6.92862 46.1932 6.56929 46.8394 6.31262C47.4857 6.04951 48.18 5.91797 48.9225 5.91797C49.7337 5.91797 50.4453 6.09763 51.0572 6.45697C51.6691 6.80988 52.1641 7.2687 52.5422 7.83338L52.4803 6.18747ZM49.0153 14.4939C49.696 14.4939 50.2837 14.3399 50.7787 14.0319C51.2807 13.7174 51.6657 13.2939 51.9337 12.7614C52.2087 12.2288 52.3462 11.6416 52.3462 11C52.3462 10.3455 52.2087 9.75513 51.9337 9.22897C51.6587 8.69638 51.2703 8.27613 50.7685 7.96813C50.2735 7.6537 49.6891 7.49647 49.0153 7.49647C48.3347 7.49647 47.716 7.6537 47.1591 7.96813C46.6022 8.28254 46.1587 8.70604 45.8287 9.23862C45.5057 9.76479 45.3441 10.3519 45.3441 11C45.3441 11.6481 45.5125 12.2383 45.8494 12.771C46.1862 13.2971 46.6332 13.7174 47.19 14.0319C47.7469 14.3399 48.3553 14.4939 49.0153 14.4939Z" fill="#111827"/>
<path d="M62.1913 6.1875H64.0271L58.3861 20.625H56.5504L58.417 15.8125L54.7148 6.1875H56.6123L59.2833 13.5891L62.1913 6.1875Z" fill="#111827"/>
<path d="M72.7882 6.18761H74.5207V16.1206C74.5207 16.7559 74.3727 17.3462 74.0769 17.8916C73.7885 18.4435 73.3962 18.9214 72.9012 19.3258C72.4062 19.7364 71.8427 20.054 71.2102 20.2786C70.5777 20.5096 69.9177 20.6251 69.2302 20.6251C68.5152 20.6251 67.8241 20.4743 67.1574 20.1728C66.4907 19.8775 65.9065 19.4797 65.4041 18.9792C64.9091 18.4852 64.5516 17.9301 64.3316 17.3141L65.9199 16.6404C66.0507 17.0831 66.2841 17.481 66.6215 17.8339C66.9649 18.1932 67.364 18.4755 67.8174 18.6809C68.2782 18.8926 68.7487 18.9984 69.2302 18.9984C69.6837 18.9984 70.1207 18.9247 70.5399 18.7771C70.9665 18.6295 71.3477 18.4242 71.6844 18.1611C72.0285 17.9045 72.2962 17.5997 72.4887 17.2468C72.6885 16.9003 72.7882 16.5249 72.7882 16.1206V14.2052C72.4374 14.757 71.9735 15.2062 71.396 15.5527C70.8252 15.8928 70.1585 16.0629 69.3952 16.0629C68.6662 16.0629 67.9824 15.9313 67.3432 15.6683C66.704 15.4052 66.1435 15.0426 65.6619 14.5806C65.181 14.1122 64.8027 13.5732 64.5277 12.9636C64.2527 12.354 64.1152 11.6995 64.1152 11.0001C64.1152 10.3007 64.2527 9.64619 64.5277 9.03661C64.8027 8.42061 65.181 7.88161 65.6619 7.41961C66.1435 6.95119 66.704 6.58544 67.3432 6.32236C67.9824 6.05927 68.6662 5.92773 69.3952 5.92773C70.1585 5.92773 70.8252 6.09777 71.396 6.43786C71.9735 6.77794 72.4374 7.22711 72.7882 7.78536V6.18761ZM69.4057 14.494C70.0724 14.494 70.6499 14.3335 71.1382 14.0128C71.6332 13.6919 72.0144 13.2652 72.2827 12.7326C72.551 12.2 72.6849 11.6225 72.6849 11.0001C72.6849 10.3584 72.5474 9.77452 72.2724 9.24836C72.0041 8.71577 71.6227 8.29227 71.1277 7.97786C70.6394 7.65702 70.0657 7.49661 69.4057 7.49661C68.7591 7.49661 68.1682 7.65384 67.6316 7.96827C67.0957 8.28268 66.6691 8.70618 66.3532 9.23877C66.044 9.76493 65.8887 10.352 65.8887 11.0001C65.8887 11.6482 66.0469 12.2385 66.3635 12.7711C66.6862 13.2972 67.1127 13.7175 67.6419 14.032C68.1785 14.34 68.7665 14.494 69.4057 14.494Z" fill="#111827"/>
<path d="M76.1758 15.8125V6.18747H77.9083V7.39062C78.2731 6.94145 78.7333 6.58529 79.2907 6.32222C79.8474 6.05272 80.4524 5.91797 81.1056 5.91797C81.5041 5.91797 81.8891 5.96609 82.2607 6.06234L81.5591 7.67938C81.2774 7.59595 81.0024 7.55422 80.7341 7.55422C80.2183 7.55422 79.7441 7.67295 79.3108 7.91037C78.8849 8.14137 78.5444 8.45579 78.2902 8.85362C78.036 9.25145 77.9083 9.6942 77.9083 10.1819V15.8125H76.1758Z" fill="#111827"/>
<path d="M82.7036 6.18781H84.4361V15.8128H82.7036V6.18781ZM83.591 4.61894C83.316 4.61894 83.0855 4.53551 82.8997 4.36869C82.7139 4.20185 82.6211 3.99331 82.6211 3.74306C82.6211 3.49281 82.7139 3.28426 82.8997 3.11744C83.0855 2.9506 83.3122 2.86719 83.5805 2.86719C83.8488 2.86719 84.0755 2.9506 84.2613 3.11744C84.4464 3.28426 84.5394 3.49281 84.5394 3.74306C84.5394 3.99331 84.4464 4.20185 84.2613 4.36869C84.0822 4.53551 83.8586 4.61894 83.591 4.61894Z" fill="#111827"/>
<path d="M94.2485 1.375H95.981V15.8125H94.2485V14.1763C93.8977 14.7409 93.4265 15.1965 92.8356 15.543C92.2441 15.8895 91.5498 16.0627 90.7523 16.0627C90.0031 16.0627 89.3015 15.9312 88.6483 15.6682C87.9956 15.4051 87.4181 15.0425 86.9158 14.5805C86.4208 14.1121 86.0327 13.5731 85.751 12.9635C85.4686 12.3539 85.3281 11.6994 85.3281 11C85.3281 10.3006 85.4686 9.64609 85.751 9.0365C86.0327 8.4205 86.4208 7.8815 86.9158 7.4195C87.4181 6.95109 87.9956 6.58534 88.6483 6.32225C89.3015 6.05916 90.0031 5.92763 90.7523 5.92763C91.5498 5.92763 92.2441 6.10087 92.8356 6.44741C93.4265 6.79391 93.8977 7.24948 94.2485 7.81416V1.375ZM90.7731 14.4939C91.4533 14.4939 92.0411 14.3399 92.5361 14.0319C93.0385 13.7174 93.4235 13.2939 93.6911 12.7614C93.9661 12.2288 94.1036 11.6416 94.1036 11C94.1036 10.3455 93.9661 9.75516 93.6911 9.229C93.4161 8.69641 93.0281 8.27616 92.5258 7.96816C92.0308 7.65373 91.4466 7.4965 90.7731 7.4965C90.0923 7.4965 89.4733 7.65373 88.9165 7.96816C88.3665 8.28257 87.9265 8.70607 87.5965 9.23866C87.2665 9.76482 87.1015 10.3519 87.1015 11C87.1015 11.6481 87.2702 12.2384 87.6069 12.771C87.9436 13.2971 88.391 13.7174 88.9477 14.0319C89.5044 14.3399 90.1131 14.4939 90.7731 14.4939Z" fill="#111827"/>
<path d="M100.776 15.9954C100.219 15.9762 99.6759 15.88 99.146 15.7067C98.6235 15.527 98.1634 15.2865 97.7643 14.9849C97.3726 14.6769 97.0873 14.324 96.9082 13.9261L98.3932 13.3294C98.4965 13.5475 98.6823 13.7529 98.9505 13.9454C99.2182 14.1379 99.528 14.2919 99.8782 14.4074C100.229 14.5229 100.583 14.5806 100.941 14.5806C101.319 14.5806 101.673 14.526 102.003 14.417C102.333 14.3079 102.601 14.1475 102.807 13.9358C103.02 13.7175 103.127 13.4577 103.127 13.1561C103.127 12.8352 103.01 12.585 102.776 12.4054C102.549 12.2192 102.261 12.0749 101.91 11.9722C101.566 11.8632 101.216 11.7604 100.858 11.6643C100.15 11.4974 99.5176 11.2985 98.9609 11.0675C98.4035 10.8301 97.9635 10.5317 97.6409 10.1724C97.3243 9.8066 97.166 9.34142 97.166 8.77676C97.166 8.18001 97.3415 7.66344 97.6923 7.2271C98.0498 6.79076 98.5173 6.45392 99.0948 6.21651C99.6723 5.97906 100.291 5.86035 100.951 5.86035C101.783 5.86035 102.543 6.02719 103.23 6.36085C103.918 6.69451 104.43 7.14692 104.766 7.71801L103.374 8.47835C103.258 8.24735 103.079 8.04526 102.838 7.87201C102.598 7.69234 102.323 7.55117 102.013 7.44851C101.704 7.34584 101.388 7.29126 101.064 7.28485C100.666 7.27201 100.291 7.32017 99.9405 7.42926C99.5965 7.53834 99.3184 7.70517 99.1051 7.92969C98.8985 8.14792 98.7959 8.4206 98.7959 8.74785C98.7959 9.06869 98.9059 9.31252 99.1259 9.47935C99.3526 9.64619 99.6448 9.78094 100.002 9.8836C100.366 9.97985 100.762 10.0922 101.188 10.2205C101.814 10.4066 102.398 10.6215 102.941 10.8654C103.484 11.1092 103.921 11.414 104.251 11.7798C104.588 12.1455 104.753 12.5979 104.746 13.1369C104.746 13.7272 104.557 14.2438 104.179 14.6865C103.801 15.1228 103.309 15.4564 102.704 15.6874C102.106 15.9185 101.463 16.0212 100.776 15.9954Z" fill="#111827"/>
</g>
<defs>
<clipPath id="clip0_13465_9117">
<rect width="105.6" height="22" fill="white"/>
</clipPath>
</defs>
</svg>
