<svg xmlns="http://www.w3.org/2000/svg" width="22" height="20" viewBox="0 0 22 20" fill="none">
  <path d="M8.3076 12.7519L15.0237 7.78825C15.3529 7.54492 15.8235 7.63983 15.9804 8.01783C16.8061 10.0112 16.4372 12.4068 14.7944 14.0516C13.1516 15.6963 10.8658 16.057 8.7765 15.2355L6.49414 16.2935C9.76772 18.5337 13.7429 17.9797 16.2269 15.491C18.1973 13.5183 18.8075 10.8293 18.2369 8.40443L18.2421 8.40958C17.4146 4.84734 18.4455 3.42347 20.5572 0.511873C20.6072 0.442838 20.6572 0.373801 20.7072 0.30304L17.9283 3.08519V3.07656L8.3059 12.7537" fill="#1F2937"/>
  <path d="M6.92202 13.9583C4.5724 11.7112 4.9775 8.23349 6.98232 6.22803C8.46481 4.74374 10.8937 4.13795 13.014 5.02852L15.2912 3.97572C14.881 3.67886 14.3552 3.35957 13.7518 3.1352C11.0247 2.01164 7.75978 2.57083 5.54292 4.78861C3.41053 6.92355 2.73996 10.2062 3.89148 13.0074C4.75168 15.1009 3.34157 16.5817 1.92113 18.0763C1.41777 18.6062 0.912684 19.136 0.505859 19.6969L6.92026 13.96" fill="#1F2937"/>
</svg>