<svg width="24" height="24" viewBox="0 0 24 24" fill="none" xmlns="http://www.w3.org/2000/svg">
<path d="M10.2987 2C12.5925 2.00024 14.453 3.86016 14.453 6.1543V16.1445C14.4528 17.4985 13.3549 18.5957 12.0009 18.5957C10.6468 18.5957 9.5489 17.4985 9.54871 16.1445V6.1543C9.54871 5.74013 9.88456 5.40437 10.2987 5.4043C10.7129 5.40431 11.0487 5.74009 11.0487 6.1543V16.1445C11.0489 16.6701 11.4752 17.0957 12.0009 17.0957C12.5264 17.0957 12.9528 16.6701 12.953 16.1445V14.4609C12.9529 14.4548 12.952 14.4486 12.952 14.4424L12.953 6.1543C12.953 4.68891 11.7644 3.50024 10.2987 3.5C8.83301 3.5 7.64441 4.6886 7.64441 6.1543V16.1445C7.6446 18.55 9.59532 20.5 12.0009 20.5C14.4062 20.4998 16.3561 18.5499 16.3563 16.1445V9.55762C16.3564 9.14347 16.6922 8.80762 17.1063 8.80762C17.5205 8.80763 17.8562 9.14347 17.8563 9.55762V16.1445C17.8561 19.3783 15.2346 21.9998 12.0009 22C8.76689 22 6.1446 19.3784 6.14441 16.1445V6.1543C6.14441 3.86018 8.00458 2 10.2987 2Z" fill="#374151"/>
</svg>
