<svg width="24" height="24" viewBox="0 0 24 24" fill="none" xmlns="http://www.w3.org/2000/svg">
<path fill-rule="evenodd" clip-rule="evenodd" d="M11.833 4.75C11.4188 4.75 11.083 5.08579 11.083 5.5V18.4991C11.083 18.9133 11.4188 19.2491 11.833 19.2491H12.1663C12.5806 19.2491 12.9163 18.9133 12.9163 18.4991V5.5C12.9163 5.08579 12.5806 4.75 12.1663 4.75H11.833ZM9.58301 5.5C9.58301 4.25736 10.5904 3.25 11.833 3.25H12.1663C13.409 3.25 14.4163 4.25736 14.4163 5.5V18.4991C14.4163 19.7417 13.409 20.7491 12.1663 20.7491H11.833C10.5904 20.7491 9.58301 19.7417 9.58301 18.4991V5.5ZM5.5 10.6016C5.08579 10.6016 4.75 10.9373 4.75 11.3516V18.5C4.75 18.9142 5.08579 19.25 5.5 19.25H5.83333C6.24755 19.25 6.58333 18.9142 6.58333 18.5V11.3516C6.58333 10.9373 6.24755 10.6016 5.83333 10.6016H5.5ZM3.25 11.3516C3.25 10.1089 4.25736 9.10156 5.5 9.10156H5.83333C7.07598 9.10156 8.08333 10.1089 8.08333 11.3516V18.5C8.08333 19.7426 7.07597 20.75 5.83333 20.75H5.5C4.25736 20.75 3.25 19.7426 3.25 18.5V11.3516ZM17.416 14.9218C17.416 14.5076 17.7518 14.1718 18.166 14.1718H18.4993C18.9136 14.1718 19.2493 14.5076 19.2493 14.9218V18.5C19.2493 18.9142 18.9136 19.25 18.4993 19.25H18.166C17.7518 19.25 17.416 18.9142 17.416 18.5V14.9218ZM18.166 12.6718C16.9234 12.6718 15.916 13.6792 15.916 14.9218V18.5C15.916 19.7426 16.9234 20.75 18.166 20.75H18.4993C19.742 20.75 20.7493 19.7426 20.7493 18.5V14.9218C20.7493 13.6792 19.742 12.6718 18.4993 12.6718H18.166Z" fill="#374151"/>
</svg>
