<svg width="24" height="24" viewBox="0 0 24 24" fill="none" xmlns="http://www.w3.org/2000/svg">
<path d="M10.5691 14.5436C10.5691 16.7028 8.81874 18.4531 6.65955 18.4531C4.50037 18.4531 2.75 16.7028 2.75 14.5436C2.75 12.3844 4.50037 10.634 6.65955 10.634C8.81874 10.634 10.5691 12.3844 10.5691 14.5436ZM10.5691 14.5436V7.04685C10.5691 6.21842 9.89753 5.54684 9.0691 5.54684H8.39849C7.86679 5.54684 7.37481 5.82832 7.10537 6.2867L3.84952 11.8254M13.4309 14.5436C13.4309 16.7028 15.1813 18.4531 17.3404 18.4531C19.4996 18.4531 21.25 16.7028 21.25 14.5436C21.25 12.3844 19.4996 10.634 17.3404 10.634C15.1813 10.634 13.4309 12.3844 13.4309 14.5436ZM13.4309 14.5436V7.04685C13.4309 6.21842 14.1025 5.54684 14.9309 5.54684H15.6015C16.1332 5.54684 16.6252 5.82832 16.8946 6.2867L20.1505 11.8254M10.5693 14.293L13.4307 14.293M10.5693 8.06722C10.5693 8.06722 10.6192 7.31722 12 7.31722C13.3808 7.31722 13.4307 8.06722 13.4307 8.06722" stroke="#374151" stroke-width="1.5" stroke-linecap="round" stroke-linejoin="round"/>
</svg>
