<svg width="24" height="24" viewBox="0 0 24 24" fill="none" xmlns="http://www.w3.org/2000/svg">
<path d="M12.0009 5.40782C12.0009 4.15034 13.0203 3.13095 14.2778 3.13095C15.3281 3.13095 16.2122 3.84203 16.4751 4.80901H16.6699C18.3268 4.80901 19.6699 6.15215 19.6699 7.80901V8.20537C20.6234 8.85186 21.25 9.94431 21.25 11.1831C21.25 12.4219 20.6234 13.5143 19.6699 14.1608V15.3731C19.6699 17.0299 18.3268 18.3731 16.6699 18.3731H16.5547V18.5897C16.5547 19.8472 15.5353 20.8666 14.2778 20.8666C13.0203 20.8666 12.0009 19.8472 12.0009 18.5897M4.33008 15.3743L4.33008 14.1618C3.37657 13.5153 2.75 12.4228 2.75 11.184C2.75 9.94525 3.37657 8.85279 4.33008 8.20631V7.81023C4.33008 6.15338 5.67322 4.81024 7.33008 4.81024H7.52507C7.78822 3.84363 8.6722 3.1329 9.72219 3.1329C10.9797 3.1329 11.9991 4.15229 11.9991 5.40977V18.5917C11.9991 19.8492 10.9797 20.8685 9.72219 20.8685C8.4647 20.8685 7.44531 19.8492 7.44531 18.5917V18.3743H7.33008C5.67322 18.3743 4.33008 17.0312 4.33008 15.3743Z" stroke="#374151" stroke-width="1.5" stroke-linecap="round" stroke-linejoin="round"/>
</svg>
