<svg width="24" height="24" viewBox="0 0 24 24" fill="none" xmlns="http://www.w3.org/2000/svg">
<path d="M13.9998 3C15.2425 3 16.2498 4.00736 16.2498 5.25V6H19.2498C20.4925 6 21.4998 7.00736 21.4998 8.25V17.25C21.4998 18.4926 20.4925 19.5 19.2498 19.5H4.74982C3.50718 19.5 2.49982 18.4926 2.49982 17.25V8.25C2.49982 7.00736 3.50718 6 4.74982 6H7.74982V5.25C7.74982 4.00742 8.75726 3.0001 9.99982 3H13.9998ZM3.99982 17.25C3.99982 17.6642 4.3356 18 4.74982 18H19.2498C19.664 18 19.9998 17.6642 19.9998 17.25V10.8877L12.8865 13.9365C12.3208 14.1789 11.6799 14.1788 11.1141 13.9365L3.99982 10.8867V17.25ZM4.74982 7.5C4.3356 7.5 3.99982 7.83579 3.99982 8.25V9.25488L11.7049 12.5576C11.8934 12.6383 12.1072 12.6383 12.2957 12.5576L19.9998 9.25488V8.25C19.9998 7.83579 19.664 7.5 19.2498 7.5H4.74982ZM9.99982 4.5C9.58569 4.5001 9.24982 4.83585 9.24982 5.25V6H14.7498V5.25C14.7498 4.83579 14.414 4.5 13.9998 4.5H9.99982Z" fill="#374151"/>
</svg>
