<svg width="24" height="24" viewBox="0 0 24 24" fill="none" xmlns="http://www.w3.org/2000/svg">
<path d="M11.6375 16.2677C11.6087 15.55 11.3425 14.8724 10.8294 14.3593C10.3386 13.8685 9.67154 13.517 8.9684 13.402M11.6375 16.2677C11.6765 17.2413 11.2786 18.2888 10.4676 19.0999C9.7818 19.7857 8.9669 20.0714 8.12778 20.1124C5.55289 20.2382 2.74988 18.059 2.74988 18.059C2.74988 18.059 4.57359 17.625 6.08888 14.7212C6.83317 13.572 7.93942 13.2338 8.9684 13.402M11.6375 16.2677L20.9014 6.11972C21.383 5.59215 21.3645 4.7791 20.8594 4.27399C20.3542 3.76888 19.5412 3.75037 19.0136 4.23198L8.9684 13.402" stroke="#374151" stroke-width="1.5" stroke-linecap="round" stroke-linejoin="round"/>
</svg>
