<svg width="24" height="24" viewBox="0 0 24 24" fill="none" xmlns="http://www.w3.org/2000/svg">
<path d="M9.75 3.80273C6.14782 4.78924 3.50011 8.08478 3.5 12C3.50014 16.6943 7.30566 20.5 12 20.5C15.9152 20.5 19.2096 17.852 20.1963 14.25H21.7432C20.7221 18.6889 16.7489 22 12 22C6.47724 22 2.00014 17.5227 2 12C2.00011 7.25115 5.31105 3.27779 9.75 2.25684V3.80273ZM12 2C17.5228 2 22 6.47715 22 12C22 12.4142 21.6642 12.75 21.25 12.75H12C11.5858 12.75 11.25 12.4142 11.25 12V2.75C11.25 2.33579 11.5858 2 12 2ZM12.75 11.25H20.4648C20.2547 8.8475 19.0451 6.73315 17.2549 5.32227C17.217 5.29241 17.179 5.26262 17.1406 5.2334C16.9016 5.05153 16.6524 4.88272 16.3945 4.72656C16.3174 4.6799 16.2398 4.6341 16.1611 4.58984C15.9148 4.45121 15.6612 4.32396 15.4004 4.20996C15.3316 4.1799 15.2621 4.15133 15.1924 4.12305C14.4273 3.8127 13.6072 3.60913 12.75 3.53418V11.25Z" fill="#374151"/>
</svg>
