<svg width="24" height="24" viewBox="0 0 24 24" fill="none" xmlns="http://www.w3.org/2000/svg">
<path d="M16.6523 18.0484L17.1526 17.4897C17.015 17.3665 16.8369 17.2984 16.6523 17.2984V18.0484ZM20.75 21.7177L20.2497 22.2765C20.4701 22.4738 20.7859 22.5232 21.056 22.4025C21.3261 22.2818 21.5 22.0136 21.5 21.7177H20.75ZM4.75 5.25H19.25V3.75H4.75V5.25ZM4 6C4 5.58579 4.33579 5.25 4.75 5.25V3.75C3.50736 3.75 2.5 4.75736 2.5 6H4ZM4 16.5484V6H2.5V16.5484H4ZM4.75 17.2984C4.33579 17.2984 4 16.9626 4 16.5484H2.5C2.5 17.791 3.50736 18.7984 4.75 18.7984V17.2984ZM16.6523 17.2984H4.75V18.7984H16.6523V17.2984ZM16.1519 18.6071L20.2497 22.2765L21.2503 21.159L17.1526 17.4897L16.1519 18.6071ZM21.5 21.7177V16.5484H20V21.7177H21.5ZM21.5 16.5484V15.3921H20V16.5484H21.5ZM20 6V15.3921H21.5V6H20ZM19.25 5.25C19.6642 5.25 20 5.58579 20 6H21.5C21.5 4.75736 20.4926 3.75 19.25 3.75V5.25Z" fill="#374151"/>
</svg>
