<svg width="24" height="24" viewBox="0 0 24 24" fill="none" xmlns="http://www.w3.org/2000/svg">
<path fill-rule="evenodd" clip-rule="evenodd" d="M3.55176 12C3.55176 7.33415 7.33417 3.55174 12 3.55174C16.6659 3.55174 20.4483 7.33415 20.4483 12C20.4483 16.6658 16.6659 20.4483 12 20.4483C7.33417 20.4483 3.55176 16.6658 3.55176 12ZM12 2.05174C6.50574 2.05174 2.05176 6.50573 2.05176 12C2.05176 17.4943 6.50574 21.9483 12 21.9483C17.4943 21.9483 21.9483 17.4943 21.9483 12C21.9483 6.50573 17.4943 2.05174 12 2.05174ZM15.5136 10.6333C15.8065 10.3404 15.8065 9.86556 15.5136 9.57267C15.2207 9.27978 14.7458 9.27978 14.4529 9.57267L11.1893 12.8363L9.54714 11.1942C9.25425 10.9013 8.77937 10.9013 8.48648 11.1942C8.19359 11.4871 8.19359 11.962 8.48648 12.2549L10.6589 14.4273C10.7996 14.568 10.9903 14.647 11.1893 14.647C11.3882 14.647 11.5789 14.568 11.7196 14.4273L15.5136 10.6333Z" fill="#374151"/>
</svg>
