<svg width="24" height="24" viewBox="0 0 24 24" fill="none" xmlns="http://www.w3.org/2000/svg">
<path d="M12 2C17.5228 2 22 6.47715 22 12C22 17.5228 17.5228 22 12 22C6.47715 22 2 17.5228 2 12C2 6.47715 6.47715 2 12 2ZM12 3.5C7.30558 3.5 3.5 7.30558 3.5 12C3.5 16.6944 7.30558 20.5 12 20.5C16.6944 20.5 20.5 16.6944 20.5 12C20.5 7.30558 16.6944 3.5 12 3.5ZM12 5.75C12.4142 5.75007 12.75 6.08583 12.75 6.5V11.25H16C16.4142 11.25 16.75 11.5858 16.75 12C16.75 12.4142 16.4142 12.75 16 12.75H12C11.6118 12.75 11.2925 12.4551 11.2539 12.0771C11.2513 12.0518 11.25 12.0261 11.25 12V6.5C11.25 6.08579 11.5858 5.75 12 5.75Z" fill="#374151"/>
</svg>
