<svg width="24" height="24" viewBox="0 0 24 24" fill="none" xmlns="http://www.w3.org/2000/svg">
<path d="M12 2C17.5228 2 22 6.47715 22 12C22 17.5228 17.5228 22 12 22C6.47715 22 2 17.5228 2 12C2 6.47715 6.47715 2 12 2ZM12 3.5C7.30558 3.5 3.5 7.30558 3.5 12C3.5 16.6944 7.30558 20.5 12 20.5C16.6944 20.5 20.5 16.6944 20.5 12C20.5 7.30558 16.6944 3.5 12 3.5ZM14.1543 8.78418C14.4471 8.49138 14.9219 8.49158 15.2148 8.78418C15.5077 9.07708 15.5077 9.55185 15.2148 9.84473L13.0596 12L15.2148 14.1553C15.5076 14.4482 15.5077 14.923 15.2148 15.2158C14.922 15.5084 14.4471 15.5085 14.1543 15.2158L11.999 13.0605L9.84375 15.2158C9.55086 15.5085 9.07602 15.5086 8.7832 15.2158C8.49068 14.923 8.49065 14.4481 8.7832 14.1553L10.9385 12L8.7832 9.84473C8.49068 9.55189 8.49065 9.07699 8.7832 8.78418C9.076 8.49138 9.55083 8.49158 9.84375 8.78418L11.999 10.9395L14.1543 8.78418Z" fill="#374151"/>
</svg>
