<svg width="24" height="24" viewBox="0 0 24 24" fill="none" xmlns="http://www.w3.org/2000/svg">
<path d="M10.3184 15.2758C9.8213 15.2758 9.41836 15.6787 9.41836 16.1758C9.41836 16.6728 9.8213 17.0758 10.3184 17.0758C10.8154 17.0758 11.2185 16.6728 11.2185 16.1758C11.2185 15.6787 10.8154 15.2758 10.3184 15.2758Z" fill="#374151"/>
<path d="M7.25684 10.79C7.25684 9.82354 8.04034 9.04004 9.00684 9.04004C9.97333 9.04004 10.7569 9.82354 10.7569 10.79C10.7569 11.7565 9.97343 12.54 9.00694 12.54C8.04044 12.54 7.25684 11.7565 7.25684 10.79Z" fill="#374151"/>
<path d="M15.2344 12.835C14.544 12.835 13.9844 13.3946 13.9844 14.085C13.9844 14.7753 14.544 15.335 15.2344 15.335C15.9247 15.335 16.4845 14.7753 16.4845 14.085C16.4845 13.3946 15.9247 12.835 15.2344 12.835Z" fill="#374151"/>
<path fill-rule="evenodd" clip-rule="evenodd" d="M12 2C6.47715 2 2 6.47715 2 12C2 17.5228 6.47715 22 12 22C17.5228 22 22 17.5228 22 12C22 11.7533 21.9911 11.5085 21.9734 11.266C21.9579 11.0521 21.8515 10.855 21.6811 10.7246C21.5106 10.5943 21.2926 10.5432 21.082 10.5842C20.9844 10.6032 20.8831 10.6133 20.7787 10.6133C19.9972 10.6133 19.3476 10.0424 19.2266 9.29498C19.1872 9.05123 19.0303 8.84251 18.8071 8.73689C18.5839 8.63127 18.323 8.64228 18.1095 8.76634C17.8036 8.94404 17.4484 9.04603 17.067 9.04603C15.9187 9.04603 14.9878 8.11515 14.9878 6.96686C14.9878 6.70574 15.0356 6.45752 15.1222 6.22928C15.2659 5.85077 15.0832 5.42655 14.7095 5.27084C14.1396 5.03337 13.7413 4.47157 13.7413 3.81848C13.7413 3.57742 13.795 3.351 13.8904 3.14873C13.9927 2.93202 13.9852 2.6795 13.8703 2.4692C13.7555 2.2589 13.5471 2.11615 13.3095 2.08505C12.8806 2.02892 12.4435 2 12 2ZM3.5 12C3.5 7.30558 7.30558 3.5 12 3.5C12.0861 3.5 12.1718 3.50128 12.2572 3.50381C12.2467 3.60736 12.2413 3.71234 12.2413 3.81848C12.2413 4.85738 12.7568 5.77472 13.5444 6.33043C13.5072 6.53728 13.4878 6.75001 13.4878 6.96686C13.4878 8.94358 15.0903 10.546 17.067 10.546C17.4002 10.546 17.7233 10.5003 18.0301 10.4148C18.4949 11.3431 19.4158 12.0032 20.4994 12.1008C20.4454 16.7488 16.6608 20.5 12 20.5C7.30558 20.5 3.5 16.6944 3.5 12Z" fill="#374151"/>
</svg>
