<svg width="24" height="24" viewBox="0 0 24 24" fill="none" xmlns="http://www.w3.org/2000/svg">
<path d="M17.1988 17.2681H8.71643C7.888 17.2681 7.21643 16.5965 7.21643 15.7681V7.28564M17.1988 17.2681L17.1989 18.772C17.1989 19.6004 16.5273 20.272 15.6989 20.272H5.71252C4.8841 20.272 4.21252 19.6004 4.21252 18.772V8.78564C4.21252 7.95722 4.8841 7.28564 5.71252 7.28564H7.21643M17.1988 17.2681H18.7091C19.5375 17.2681 20.2091 16.5965 20.2091 15.7681L20.2091 5.77344C20.2091 4.94501 19.5375 4.27344 18.7091 4.27344H8.71643C7.888 4.27344 7.21643 4.94501 7.21643 5.77344V7.28564" stroke="#374151" stroke-width="1.5" stroke-linecap="round" stroke-linejoin="round"/>
</svg>
