<svg width="24" height="24" viewBox="0 0 24 24" fill="none" xmlns="http://www.w3.org/2000/svg">
<path fill-rule="evenodd" clip-rule="evenodd" d="M7.25 3.25C5.04087 3.25 3.25 5.04085 3.25 7.24999C3.25 9.45913 5.04087 11.25 7.25 11.25C9.45913 11.25 11.25 9.45913 11.25 7.24999C11.25 5.04085 9.45913 3.25 7.25 3.25ZM4.75 7.24999C4.75 5.86929 5.86929 4.75 7.25 4.75C8.63071 4.75 9.75 5.86929 9.75 7.24999C9.75 8.63069 8.63071 9.74998 7.25 9.74998C5.86929 9.74998 4.75 8.63069 4.75 7.24999ZM7.25 12.75C5.04087 12.75 3.25 14.5409 3.25 16.75C3.25 18.9591 5.04087 20.75 7.25 20.75C9.45913 20.75 11.25 18.9591 11.25 16.75C11.25 14.5409 9.45913 12.75 7.25 12.75ZM4.75 16.75C4.75 15.3693 5.86929 14.25 7.25 14.25C8.63071 14.25 9.75 15.3693 9.75 16.75C9.75 18.1307 8.63071 19.25 7.25 19.25C5.86929 19.25 4.75 18.1307 4.75 16.75ZM12.75 7.24999C12.75 5.04085 14.5409 3.25 16.75 3.25C18.9591 3.25 20.75 5.04085 20.75 7.24999C20.75 9.45913 18.9591 11.25 16.75 11.25C14.5409 11.25 12.75 9.45913 12.75 7.24999ZM16.75 4.75C15.3693 4.75 14.25 5.86929 14.25 7.24999C14.25 8.63069 15.3693 9.74998 16.75 9.74998C18.1307 9.74998 19.25 8.63069 19.25 7.24999C19.25 5.86929 18.1307 4.75 16.75 4.75ZM16.75 12.75C14.5409 12.75 12.75 14.5409 12.75 16.75C12.75 18.9591 14.5409 20.75 16.75 20.75C18.9591 20.75 20.75 18.9591 20.75 16.75C20.75 14.5409 18.9591 12.75 16.75 12.75ZM14.25 16.75C14.25 15.3693 15.3693 14.25 16.75 14.25C18.1307 14.25 19.25 15.3693 19.25 16.75C19.25 18.1307 18.1307 19.25 16.75 19.25C15.3693 19.25 14.25 18.1307 14.25 16.75Z" fill="#374151"/>
</svg>
