<svg width="24" height="24" viewBox="0 0 24 24" fill="none" xmlns="http://www.w3.org/2000/svg">
<g clip-path="url(#clip0_11627_57837)">
<path d="M21.0275 5.48364C19.3761 4.08728 17.3945 3.3891 15.3028 3.27274L14.9725 3.62183C16.844 4.08728 18.4954 5.01819 20.0367 6.29819C18.1651 5.25092 16.0734 4.55274 13.8716 4.32001C13.211 4.20364 12.6606 4.20364 12 4.20364C11.3394 4.20364 10.789 4.20364 10.1284 4.32001C7.92661 4.55274 5.83486 5.25092 3.9633 6.29819C5.50459 5.01819 7.15596 4.08728 9.02752 3.62183L8.69725 3.27274C6.6055 3.3891 4.62385 4.08728 2.97248 5.48364C1.10092 9.20728 0.110092 13.3964 0 17.7018C1.65138 19.5636 3.9633 20.7273 6.38532 20.7273C6.38532 20.7273 7.15596 19.7964 7.70642 18.9818C6.27523 18.6327 4.95413 17.8182 4.07339 16.5382C4.84404 17.0036 5.61468 17.4691 6.38532 17.8182C7.37615 18.2836 8.36697 18.5164 9.3578 18.7491C10.2385 18.8655 11.1193 18.9818 12 18.9818C12.8807 18.9818 13.7615 18.8655 14.6422 18.7491C15.633 18.5164 16.6239 18.2836 17.6147 17.8182C18.3853 17.4691 19.156 17.0036 19.9266 16.5382C19.0459 17.8182 17.7248 18.6327 16.2936 18.9818C16.844 19.7964 17.6147 20.7273 17.6147 20.7273C20.0367 20.7273 22.3486 19.5636 24 17.7018C23.8899 13.3964 22.8991 9.20728 21.0275 5.48364ZM8.36697 15.6073C7.26606 15.6073 6.27523 14.56 6.27523 13.28C6.27523 12 7.26606 10.9527 8.36697 10.9527C9.46789 10.9527 10.4587 12 10.4587 13.28C10.4587 14.56 9.46789 15.6073 8.36697 15.6073ZM15.633 15.6073C14.5321 15.6073 13.5413 14.56 13.5413 13.28C13.5413 12 14.5321 10.9527 15.633 10.9527C16.7339 10.9527 17.7248 12 17.7248 13.28C17.7248 14.56 16.7339 15.6073 15.633 15.6073Z" fill="#374151"/>
</g>
<defs>
<clipPath id="clip0_11627_57837">
<rect width="24" height="24" fill="white"/>
</clipPath>
</defs>
</svg>
