<svg width="24" height="24" viewBox="0 0 24 24" fill="none" xmlns="http://www.w3.org/2000/svg">
<path fill-rule="evenodd" clip-rule="evenodd" d="M12.7498 2.79175C12.7498 2.37754 12.414 2.04175 11.9998 2.04175C11.5856 2.04175 11.2498 2.37754 11.2498 2.79175V4.39877C9.28109 4.67329 7.76578 6.36367 7.76578 8.40796C7.76578 10.0954 8.81249 11.6058 10.3925 12.1984L13.0808 13.2066C14.0753 13.5795 14.7342 14.5303 14.7342 15.5925C14.7342 16.9998 13.5933 18.1407 12.186 18.1407H11.1291C10.1 18.1407 9.26578 17.3064 9.26578 16.2773C9.26578 15.8631 8.93 15.5273 8.51578 15.5273C8.10157 15.5273 7.76578 15.8631 7.76578 16.2773C7.76578 18.1349 9.27161 19.6407 11.1291 19.6407H11.2498V21.2083C11.2498 21.6225 11.5856 21.9583 11.9998 21.9583C12.414 21.9583 12.7498 21.6225 12.7498 21.2083V19.6017C14.7187 19.3274 16.2342 17.6369 16.2342 15.5925C16.2342 13.9051 15.1875 12.3946 13.6075 11.8021L10.9192 10.7939C9.92465 10.4209 9.26578 9.47014 9.26578 8.40796C9.26578 7.00063 10.4066 5.85977 11.814 5.85977H12.8708C13.8999 5.85977 14.7342 6.69402 14.7342 7.72312C14.7342 8.13733 15.07 8.47312 15.4842 8.47312C15.8984 8.47312 16.2342 8.13733 16.2342 7.72312C16.2342 5.86559 14.7284 4.35977 12.8708 4.35977H12.7498V2.79175Z" fill="#374151"/>
</svg>
