<svg width="24" height="24" viewBox="0 0 24 24" fill="none" xmlns="http://www.w3.org/2000/svg">
<path fill-rule="evenodd" clip-rule="evenodd" d="M12.5303 6.28033C12.8232 5.98744 12.8232 5.51256 12.5303 5.21967C12.2374 4.92678 11.7626 4.92678 11.4697 5.21967L5.21967 11.4697C4.92678 11.7626 4.92678 12.2374 5.21967 12.5303L11.4697 18.7803C11.7626 19.0732 12.2374 19.0732 12.5303 18.7803C12.8232 18.4874 12.8232 18.0126 12.5303 17.7197L6.81066 12L12.5303 6.28033ZM18.689 6.28033C18.9819 5.98744 18.9819 5.51256 18.689 5.21967C18.3961 4.92678 17.9212 4.92678 17.6283 5.21967L11.3783 11.4697C11.0854 11.7626 11.0854 12.2374 11.3783 12.5303L17.6283 18.7803C17.9212 19.0732 18.3961 19.0732 18.689 18.7803C18.9819 18.4874 18.9819 18.0126 18.689 17.7197L12.9693 12L18.689 6.28033Z" fill="#374151"/>
</svg>
