<svg width="24" height="24" viewBox="0 0 24 24" fill="none" xmlns="http://www.w3.org/2000/svg">
<path fill-rule="evenodd" clip-rule="evenodd" d="M12.002 16.75C11.786 16.75 11.5913 16.6587 11.4545 16.5126L6.84487 11.9059C6.55188 11.6131 6.55173 11.1382 6.84453 10.8452C7.13733 10.5523 7.61221 10.5521 7.90519 10.8449L11.252 14.1896L11.252 4C11.252 3.58579 11.5878 3.25 12.002 3.25C12.4162 3.25 12.752 3.58579 12.752 4L12.752 14.1854L16.0949 10.8449C16.3879 10.5521 16.8628 10.5523 17.1555 10.8453C17.4483 11.1383 17.4482 11.6131 17.1552 11.9059L12.5802 16.4776C12.4427 16.644 12.2347 16.75 12.002 16.75ZM4.75 16C4.75 15.5858 4.41421 15.25 4 15.25C3.58579 15.25 3.25 15.5858 3.25 16V18.5C3.25 19.7426 4.25736 20.75 5.5 20.75H18.5009C19.7435 20.75 20.7509 19.7426 20.7509 18.5V16C20.7509 15.5858 20.4151 15.25 20.0009 15.25C19.5867 15.25 19.2509 15.5858 19.2509 16V18.5C19.2509 18.9142 18.9151 19.25 18.5009 19.25H5.5C5.08579 19.25 4.75 18.9142 4.75 18.5V16Z" fill="#374151"/>
</svg>
