<svg width="24" height="24" viewBox="0 0 24 24" fill="none" xmlns="http://www.w3.org/2000/svg">
<path fill-rule="evenodd" clip-rule="evenodd" d="M8.12418 4.53906L15.8733 4.53906C16.1412 4.53906 16.3888 4.68201 16.5228 4.91406L20.3973 11.625C20.5313 11.857 20.5313 12.1429 20.3973 12.375L16.5228 19.0859C16.3888 19.3179 16.1412 19.4609 15.8733 19.4609H8.12418C7.85623 19.4609 7.60863 19.3179 7.47466 19.0859L3.60011 12.375C3.46614 12.1429 3.46614 11.857 3.60012 11.625L7.47466 4.91406C7.60863 4.68201 7.85623 4.53906 8.12418 4.53906ZM15.8733 3.03906H8.12418C7.32033 3.03906 6.57754 3.46791 6.17562 4.16406L2.30108 10.875C1.89915 11.5711 1.89915 12.4288 2.30108 13.125L6.17562 19.8359C6.57754 20.532 7.32033 20.9609 8.12418 20.9609H15.8733C16.6771 20.9609 17.4199 20.532 17.8218 19.8359L21.6964 13.125C22.0983 12.4288 22.0983 11.5711 21.6964 10.875L17.8218 4.16406C17.4199 3.46791 16.6771 3.03906 15.8733 3.03906ZM12.0004 7.81075C12.4146 7.81075 12.7504 8.14653 12.7504 8.56075V12.7803C12.7504 13.1945 12.4146 13.5303 12.0004 13.5303C11.5861 13.5303 11.2504 13.1945 11.2504 12.7803V8.56075C11.2504 8.14653 11.5861 7.81075 12.0004 7.81075ZM11.0994 15.3303C11.0994 14.8332 11.5024 14.4303 11.9994 14.4303H12.0002C12.4972 14.4303 12.9002 14.8332 12.9002 15.3303C12.9002 15.8274 12.4972 16.2303 12.0002 16.2303H11.9994C11.5024 16.2303 11.0994 15.8274 11.0994 15.3303Z" fill="#374151"/>
</svg>
