<svg width="24" height="24" viewBox="0 0 24 24" fill="none" xmlns="http://www.w3.org/2000/svg">
<path fill-rule="evenodd" clip-rule="evenodd" d="M13.9482 3.875C13.0822 2.375 10.9171 2.375 10.0511 3.875L2.54552 16.875C1.6795 18.375 2.76203 20.25 4.49408 20.25H19.5052C21.2372 20.25 22.3198 18.375 21.4537 16.875L13.9482 3.875ZM11.3501 4.625C11.6388 4.125 12.3605 4.125 12.6492 4.625L20.1547 17.625C20.4434 18.125 20.0825 18.75 19.5052 18.75H4.49408C3.91673 18.75 3.55588 18.125 3.84456 17.625L11.3501 4.625ZM12.0004 8.56075C12.4146 8.56075 12.7504 8.89653 12.7504 9.31075V13.5303C12.7504 13.9445 12.4146 14.2803 12.0004 14.2803C11.5861 14.2803 11.2504 13.9445 11.2504 13.5303V9.31075C11.2504 8.89653 11.5861 8.56075 12.0004 8.56075ZM11.0994 16.0803C11.0994 15.5832 11.5024 15.1803 11.9994 15.1803H12.0002C12.4972 15.1803 12.9002 15.5832 12.9002 16.0803C12.9002 16.5774 12.4972 16.9803 12.0002 16.9803H11.9994C11.5024 16.9803 11.0994 16.5774 11.0994 16.0803Z" fill="#374151"/>
</svg>
