<svg width="24" height="24" viewBox="0 0 24 24" fill="none" xmlns="http://www.w3.org/2000/svg">
<path d="M12 2C17.5228 2 22 6.47715 22 12C22 17.5228 17.5228 22 12 22C6.47715 22 2 17.5228 2 12C2 6.47715 6.47715 2 12 2ZM12 3.5C7.30558 3.5 3.5 7.30558 3.5 12C3.5 16.6944 7.30558 20.5 12 20.5C16.6944 20.5 20.5 16.6944 20.5 12C20.5 7.30558 16.6944 3.5 12 3.5ZM12 14.4307C12.497 14.4307 12.9003 14.8331 12.9004 15.3301C12.9004 15.8271 12.4971 16.2305 12 16.2305H11.999C11.5021 16.2303 11.0996 15.827 11.0996 15.3301C11.0997 14.8332 11.5022 14.4309 11.999 14.4307H12ZM12 7.81055C12.4141 7.81055 12.7499 8.14643 12.75 8.56055V12.7803C12.75 13.1945 12.4142 13.5303 12 13.5303C11.5859 13.5301 11.25 13.1944 11.25 12.7803V8.56055C11.2501 8.14654 11.586 7.81074 12 7.81055Z" fill="#374151"/>
</svg>
