<svg width="24" height="24" viewBox="0 0 24 24" fill="none" xmlns="http://www.w3.org/2000/svg">
<path fill-rule="evenodd" clip-rule="evenodd" d="M20.5 12C20.5 16.6944 16.6944 20.5 12 20.5C7.30558 20.5 3.5 16.6944 3.5 12C3.5 7.30558 7.30558 3.5 12 3.5C16.6944 3.5 20.5 7.30558 20.5 12ZM12 22C17.5228 22 22 17.5228 22 12C22 6.47715 17.5228 2 12 2C6.47715 2 2 6.47715 2 12C2 17.5228 6.47715 22 12 22ZM13.0009 16.4749C13.0009 15.9226 12.5532 15.4749 12.0009 15.4749L11.9999 15.4749C11.4476 15.4749 10.9999 15.9226 10.9999 16.4749C10.9999 17.0272 11.4476 17.4749 11.9999 17.4749L12.0009 17.4749C12.5532 17.4749 13.0009 17.0272 13.0009 16.4749ZM11.9999 6.62859C12.4141 6.62859 12.7499 6.96437 12.7499 7.37859L12.7499 13.0551C12.7499 13.4693 12.4141 13.8051 11.9999 13.8051C11.5857 13.8051 11.2499 13.4693 11.2499 13.0551L11.2499 7.37859C11.2499 6.96437 11.5857 6.62859 11.9999 6.62859Z" fill="#374151"/>
</svg>
