<svg width="24" height="24" viewBox="0 0 24 24" fill="none" xmlns="http://www.w3.org/2000/svg">
<path fill-rule="evenodd" clip-rule="evenodd" d="M5.5 3.25C4.25736 3.25 3.25 4.25736 3.25 5.5V18.5C3.25 19.7426 4.25736 20.75 5.5 20.75H18.5C19.7426 20.75 20.75 19.7426 20.75 18.5V5.5C20.75 4.25736 19.7426 3.25 18.5 3.25H5.5ZM4.75 5.5C4.75 5.08579 5.08579 4.75 5.5 4.75H18.5C18.9142 4.75 19.25 5.08579 19.25 5.5V18.5C19.25 18.9142 18.9142 19.25 18.5 19.25H5.5C5.08579 19.25 4.75 18.9142 4.75 18.5V5.5ZM12.0004 7.81075C12.4146 7.81075 12.7504 8.14653 12.7504 8.56075V12.7803C12.7504 13.1945 12.4146 13.5303 12.0004 13.5303C11.5861 13.5303 11.2504 13.1945 11.2504 12.7803V8.56075C11.2504 8.14653 11.5861 7.81075 12.0004 7.81075ZM11.0994 15.3303C11.0994 14.8332 11.5023 14.4303 11.9994 14.4303H12.0001C12.4972 14.4303 12.9001 14.8332 12.9001 15.3303C12.9001 15.8274 12.4972 16.2303 12.0001 16.2303H11.9994C11.5023 16.2303 11.0994 15.8274 11.0994 15.3303Z" fill="#374151"/>
</svg>
