<svg width="24" height="24" viewBox="0 0 24 24" fill="none" xmlns="http://www.w3.org/2000/svg">
<path d="M21.0413 11.0497L20.3602 11.3638L21.0413 11.0497ZM21.0413 12.9515L20.3602 12.6374L21.0413 12.9515ZM2.95862 11.0497L2.27757 10.7355L2.95862 11.0497ZM2.95862 12.9515L2.27757 13.2656H2.27757L2.95862 12.9515ZM9.54371 4.78458C9.14053 4.87953 8.89066 5.28335 8.98561 5.68654C9.08056 6.08972 9.48438 6.33959 9.88756 6.24464L9.54371 4.78458ZM18.9479 14.8239C18.6765 15.1368 18.7101 15.6105 19.0231 15.8819C19.336 16.1533 19.8097 16.1196 20.0811 15.8067L18.9479 14.8239ZM3.28033 2.22016C2.98744 1.92726 2.51256 1.92726 2.21967 2.22016C1.92678 2.51305 1.92678 2.98793 2.21967 3.28082L3.28033 2.22016ZM20.7187 21.7798C21.0116 22.0727 21.4865 22.0727 21.7794 21.7798C22.0722 21.4869 22.0722 21.0121 21.7794 20.7192L20.7187 21.7798ZM12.7644 7.69216C12.3565 7.6202 11.9675 7.89254 11.8955 8.30045C11.8235 8.70837 12.0959 9.09739 12.5038 9.16935L12.7644 7.69216ZM14.831 11.4958C14.9031 11.9037 15.2922 12.1759 15.7001 12.1038C16.108 12.0317 16.3802 11.6426 16.3081 11.2347L14.831 11.4958ZM14.5633 14.5637L15.0936 14.0334L14.5633 14.5637ZM11.9999 5.25049V6.00049C15.7032 6.00049 18.8986 8.19478 20.3602 11.3638L21.0413 11.0497L21.7223 10.7355C20.0256 7.05681 16.3119 4.50049 11.9999 4.50049V5.25049ZM11.9999 18.7507V18.0007C8.29674 18.0007 5.10129 15.8064 3.63968 12.6374L2.95862 12.9515L2.27757 13.2656C3.97428 16.9444 7.68801 19.5007 11.9999 19.5007V18.7507ZM21.0413 11.0497L20.3602 11.3638C20.5464 11.7676 20.5464 12.2336 20.3602 12.6374L21.0413 12.9515L21.7223 13.2657C22.0924 12.4632 22.0924 11.538 21.7223 10.7355L21.0413 11.0497ZM2.95862 11.0497L2.27757 10.7355C1.90748 11.538 1.90748 12.4632 2.27757 13.2656L2.95862 12.9515L3.63968 12.6374C3.45344 12.2336 3.45344 11.7676 3.63968 11.3638L2.95862 11.0497ZM12 15.6255V14.8755C10.4122 14.8755 9.125 13.5883 9.125 12.0005H8.375H7.625C7.625 14.4167 9.58375 16.3755 12 16.3755V15.6255ZM9.71564 5.51461L9.88756 6.24464C10.5651 6.08507 11.2722 6.00049 11.9999 6.00049V5.25049V4.50049C11.1556 4.50049 10.3332 4.59867 9.54371 4.78458L9.71564 5.51461ZM21.0413 12.9515L20.3602 12.6374C19.9929 13.4339 19.5156 14.1693 18.9479 14.8239L19.5145 15.3153L20.0811 15.8067C20.7405 15.0464 21.2951 14.1919 21.7223 13.2657L21.0413 12.9515ZM12.6341 8.43076L12.5038 9.16935C13.6868 9.37807 14.6219 10.3129 14.831 11.4958L15.5695 11.3653L16.3081 11.2347C15.9893 9.4311 14.5682 8.01039 12.7644 7.69216L12.6341 8.43076ZM6.74986 6.75034L6.21953 7.28067L8.90641 9.96756L9.43674 9.43723L9.96707 8.9069L7.28019 6.22001L6.74986 6.75034ZM14.5633 14.5637L14.0329 15.0941L16.7199 17.781L17.2502 17.2507L17.7806 16.7204L15.0936 14.0334L14.5633 14.5637ZM17.2502 17.2507L16.8533 16.6144C15.4445 17.4932 13.7824 18.0007 11.9999 18.0007V18.7507V19.5007C14.0714 19.5007 16.0074 18.9099 17.6472 17.8871L17.2502 17.2507ZM14.5633 14.5637L14.0329 14.0334C13.5118 14.5545 12.7941 14.8755 12 14.8755V15.6255V16.3755C13.2079 16.3755 14.3027 15.885 15.0936 15.0941L14.5633 14.5637ZM8.375 12.0005H9.125C9.125 11.2064 9.44597 10.4886 9.96707 9.96756L9.43674 9.43723L8.90641 8.9069C8.11551 9.69779 7.625 10.7926 7.625 12.0005H8.375ZM2.75 2.75049L2.21967 3.28082L6.21953 7.28067L6.74986 6.75034L7.28019 6.22001L3.28033 2.22016L2.75 2.75049ZM9.43674 9.43723L8.90641 9.96756L14.0329 15.0941L14.5633 14.5637L15.0936 14.0334L9.96707 8.9069L9.43674 9.43723ZM17.2502 17.2507L16.7199 17.781L20.7187 21.7798L21.249 21.2495L21.7794 20.7192L17.7806 16.7204L17.2502 17.2507ZM2.95862 11.0497L3.63968 11.3638C4.39798 9.71966 5.62432 8.33636 7.14679 7.3867L6.74986 6.75034L6.35292 6.11399C4.58359 7.21765 3.15905 8.82436 2.27757 10.7355L2.95862 11.0497Z" fill="#374151"/>
</svg>
