<svg width="24" height="24" viewBox="0 0 24 24" fill="none" xmlns="http://www.w3.org/2000/svg">
<path d="M2.95875 12.9509C2.68058 12.3478 2.68058 11.6522 2.95875 11.0491C4.53791 7.6252 7.9925 5.24989 12.0001 5.24989C16.0076 5.24989 19.4622 7.6252 21.0414 11.0491C21.3196 11.6522 21.3196 12.3478 21.0414 12.9509C19.4622 16.3748 16.0076 18.7501 12.0001 18.7501C7.9925 18.7501 4.53791 16.3748 2.95875 12.9509Z" stroke="#374151" stroke-width="1.5" stroke-linecap="round" stroke-linejoin="round"/>
<path d="M15.6251 11.9999C15.6251 14.0019 14.0022 15.6249 12.0001 15.6249C9.99809 15.6249 8.37512 14.0019 8.37512 11.9999C8.37512 9.99786 9.99809 8.37489 12.0001 8.37489C14.0022 8.37489 15.6251 9.99786 15.6251 11.9999Z" stroke="#374151" stroke-width="1.5" stroke-linecap="round" stroke-linejoin="round"/>
</svg>
