<svg width="24" height="24" viewBox="0 0 24 24" fill="none" xmlns="http://www.w3.org/2000/svg">
<g clip-path="url(#clip0_2240_3250)">
<path d="M24 12.0729C24 5.44547 18.6274 0.0728912 12 0.0728912C5.37258 0.0728912 0 5.44547 0 12.0729C0 18.0623 4.3882 23.0269 10.125 23.9271V15.5416H7.07812V12.0729H10.125V9.42914C10.125 6.42164 11.9166 4.76039 14.6576 4.76039C15.9701 4.76039 17.3438 4.99477 17.3438 4.99477V7.94789H15.8306C14.34 7.94789 13.875 8.87297 13.875 9.82289V12.0729H17.2031L16.6711 15.5416H13.875V23.9271C19.6118 23.0269 24 18.0623 24 12.0729Z" fill="#374151"/>
</g>
<defs>
<clipPath id="clip0_2240_3250">
<rect width="24" height="24" fill="white"/>
</clipPath>
</defs>
</svg>
