<svg width="24" height="24" viewBox="0 0 24 24" fill="none" xmlns="http://www.w3.org/2000/svg">
<path fill-rule="evenodd" clip-rule="evenodd" d="M14.6463 18.987C15.889 18.987 16.8963 17.9797 16.8963 16.737V4.25098C16.8963 3.00834 15.889 2.00098 14.6463 2.00098H10.6958C10.0988 2.00098 9.52631 2.23822 9.10431 2.66048L4.75422 7.0133C4.33256 7.43522 4.0957 8.0073 4.0957 8.60379V16.737C4.0957 17.9797 5.10306 18.987 6.3457 18.987H14.6463ZM15.3963 16.737C15.3963 17.1512 15.0605 17.487 14.6463 17.487H6.3457C5.93149 17.487 5.5957 17.1512 5.5957 16.737V8.73336H8.57804C9.82131 8.73336 10.8289 7.72502 10.828 6.48176L10.8259 3.50098H14.6463C15.0605 3.50098 15.3963 3.83676 15.3963 4.25098V16.737ZM9.32667 4.55997L6.65495 7.23336H8.57804C8.99246 7.23336 9.32834 6.89725 9.32804 6.48283L9.32667 4.55997ZM7.98477 11.8367C7.57055 11.8367 7.23477 12.1725 7.23477 12.5867C7.23477 13.0009 7.57055 13.3367 7.98477 13.3367H13.0073C13.4215 13.3367 13.7573 13.0009 13.7573 12.5867C13.7573 12.1725 13.4215 11.8367 13.0073 11.8367H7.98477ZM7.98477 14.348C7.57055 14.348 7.23477 14.6837 7.23477 15.098C7.23477 15.5122 7.57055 15.848 7.98477 15.848H10.496C10.9102 15.848 11.246 15.5122 11.246 15.098C11.246 14.6837 10.9102 14.348 10.496 14.348H7.98477ZM18.4064 5.68311C18.4064 5.26889 18.7422 4.93311 19.1564 4.93311C19.5707 4.93311 19.9064 5.26889 19.9064 5.68311V17.25C19.9064 19.8734 17.7798 22 15.1564 22H7.7976C7.38339 22 7.0476 21.6643 7.0476 21.25C7.0476 20.8358 7.38339 20.5 7.7976 20.5H15.1564C16.9514 20.5 18.4064 19.045 18.4064 17.25V5.68311Z" fill="#374151"/>
</svg>
