<svg width="24" height="24" viewBox="0 0 24 24" fill="none" xmlns="http://www.w3.org/2000/svg">
<path d="M17.25 2C18.4926 2 19.5 3.00736 19.5 4.25V19.75C19.5 20.9926 18.4926 22 17.25 22H6.75C5.50736 22 4.5 20.9926 4.5 19.75V9.62109C4.5 9.02461 4.73656 8.45219 5.1582 8.03027L10.5264 2.65918C10.9483 2.23707 11.5213 2 12.1182 2H17.25ZM12.251 7.49902C12.2517 8.74215 11.2441 9.75093 10.001 9.75098H6V19.75C6 20.1642 6.33579 20.5 6.75 20.5H17.25C17.6642 20.5 18 20.1642 18 19.75V4.25C18 3.83579 17.6642 3.5 17.25 3.5H12.248L12.251 7.49902ZM12 16.75C12.4142 16.75 12.75 17.0858 12.75 17.5C12.75 17.9142 12.4142 18.25 12 18.25H9C8.58579 18.25 8.25 17.9142 8.25 17.5C8.25 17.0858 8.58579 16.75 9 16.75H12ZM15 13.75C15.4142 13.75 15.75 14.0858 15.75 14.5C15.75 14.9142 15.4142 15.25 15 15.25H9C8.58579 15.25 8.25 14.9142 8.25 14.5C8.25 14.0858 8.58579 13.75 9 13.75H15ZM7.05957 8.25098H10.001C10.4153 8.25093 10.7511 7.91428 10.751 7.5L10.749 4.55859L7.05957 8.25098Z" fill="#374151"/>
</svg>
