<svg width="24" height="24" viewBox="0 0 24 24" fill="none" xmlns="http://www.w3.org/2000/svg">
<path fill-rule="evenodd" clip-rule="evenodd" d="M9.75 20.5V22H6.75C5.50736 22 4.5 20.9926 4.5 19.75V9.62105C4.5 9.02455 4.73686 8.45247 5.15851 8.03055L10.5262 2.65951C10.9482 2.23725 11.5207 2 12.1177 2H17.25C18.4926 2 19.5 3.00736 19.5 4.25V9.75H18V4.25C18 3.83579 17.6642 3.5 17.25 3.5H12.248L12.2509 7.49913C12.2518 8.72301 11.2753 9.71923 10.0589 9.75H9.75V9.75073H6V19.75C6 20.1642 6.33579 20.5 6.75 20.5H9.75ZM10.7488 4.55876L7.05913 8.25073H10.0009C10.4153 8.25073 10.7512 7.91462 10.7509 7.5002L10.7488 4.55876ZM14.1736 11.9236C12.931 11.9236 11.9236 12.9309 11.9236 14.1736V18.7489V19.0763V19.5972C11.9236 20.5521 12.7227 21.3262 13.7083 21.3262H14.1537L14.1736 21.3263H19.0763L19.0963 21.3262H19.5415C20.5272 21.3262 21.3262 20.5521 21.3262 19.5972L21.3262 19.0949L21.3263 19.0763V14.1736C21.3263 12.9309 20.319 11.9236 19.0763 11.9236H14.1736ZM19.8263 17.213V14.1736C19.8263 13.7594 19.4905 13.4236 19.0763 13.4236H14.1736C13.7594 13.4236 13.4236 13.7594 13.4236 14.1736V17.9845L14.1881 17.595C14.7296 17.319 15.3793 17.331 15.9095 17.6268L16.9673 18.2169C17.6849 18.6172 18.5925 18.4867 19.1592 17.9017L19.8263 17.213ZM14.4928 15.2942C14.4928 14.8524 14.851 14.4942 15.2928 14.4942H15.2982C15.74 14.4942 16.0982 14.8524 16.0982 15.2942C16.0982 15.736 15.74 16.0942 15.2982 16.0942H15.2928C14.851 16.0942 14.4928 15.736 14.4928 15.2942Z" fill="#374151"/>
</svg>
