<svg width="24" height="24" viewBox="0 0 24 24" fill="none" xmlns="http://www.w3.org/2000/svg">
<path fill-rule="evenodd" clip-rule="evenodd" d="M17.25 22C18.4926 22 19.5 20.9926 19.5 19.75V19.0058H20.5C21.3284 19.0058 22 18.3342 22 17.5058V13.25C22 12.4216 21.3284 11.75 20.5 11.75H10.5C9.67157 11.75 9 12.4216 9 13.25V17.5058C9 18.3342 9.67157 19.0058 10.5 19.0058H18V19.75C18 20.1642 17.6642 20.5 17.25 20.5H6.75C6.33579 20.5 6 20.1642 6 19.75V9.75073H10.0009C11.2442 9.75073 12.2518 8.7424 12.2509 7.49913L12.248 3.5H17.25C17.6642 3.5 18 3.83579 18 4.25V11.7378H19.5V4.25C19.5 3.00736 18.4926 2 17.25 2H12.1177C11.5207 2 10.9482 2.23725 10.5262 2.65951L5.15851 8.03055C4.73686 8.45247 4.5 9.02455 4.5 9.62105V19.75C4.5 20.9926 5.50736 22 6.75 22H17.25ZM10.7488 4.55876L7.05913 8.25073H10.0009C10.4153 8.25073 10.7512 7.91462 10.7509 7.5002L10.7488 4.55876ZM20.8038 14.1435C20.8038 14.1718 20.7957 14.1939 20.7796 14.21C20.7635 14.2262 20.7413 14.2342 20.7131 14.2342H18.9113C18.8911 14.2342 18.881 14.2443 18.881 14.2645V14.8328C18.881 14.853 18.8911 14.8631 18.9113 14.8631H20.0299C20.0581 14.8631 20.0802 14.8711 20.0964 14.8873C20.1125 14.9034 20.1206 14.9255 20.1206 14.9538V15.7398C20.1206 15.768 20.1125 15.7902 20.0964 15.8063C20.0802 15.8224 20.0581 15.8305 20.0299 15.8305H18.9113C18.8911 15.8305 18.881 15.8406 18.881 15.8607V17.4026C18.881 17.4308 18.873 17.453 18.8568 17.4691C18.8407 17.4852 18.8185 17.4933 18.7903 17.4933H17.835C17.8068 17.4933 17.7846 17.4852 17.7685 17.4691C17.7523 17.453 17.7443 17.4308 17.7443 17.4026V13.3514C17.7443 13.3232 17.7523 13.3011 17.7685 13.2849C17.7846 13.2688 17.8068 13.2607 17.835 13.2607H20.7131C20.7413 13.2607 20.7635 13.2688 20.7796 13.2849C20.7957 13.3011 20.8038 13.3232 20.8038 13.3514V14.1435ZM14.0319 17.4691C14.048 17.4852 14.0702 17.4933 14.0984 17.4933H15.6524C15.9789 17.4933 16.2671 17.4369 16.517 17.324C16.771 17.2111 16.9665 17.0519 17.1035 16.8463C17.2406 16.6407 17.3091 16.4029 17.3091 16.1328V14.6212C17.3091 14.3511 17.2406 14.1133 17.1035 13.9077C16.9665 13.7021 16.771 13.5429 16.517 13.43C16.2671 13.3172 15.9789 13.2607 15.6524 13.2607H14.0984C14.0702 13.2607 14.048 13.2688 14.0319 13.2849C14.0158 13.3011 14.0077 13.3232 14.0077 13.3514V17.4026C14.0077 17.4308 14.0158 17.453 14.0319 17.4691ZM15.1747 16.5198C15.1545 16.5198 15.1445 16.5097 15.1445 16.4896V14.2645C15.1445 14.2443 15.1545 14.2342 15.1747 14.2342H15.6887C15.8338 14.2342 15.9507 14.2886 16.0393 14.3975C16.128 14.5023 16.1724 14.6414 16.1724 14.8147V15.9393C16.1683 16.1127 16.122 16.2538 16.0333 16.3626C15.9446 16.4674 15.8318 16.5198 15.6947 16.5198H15.1747ZM12.2256 13.2607C12.5118 13.2607 12.7637 13.3192 12.9814 13.4361C13.1991 13.549 13.3664 13.7122 13.4833 13.9259C13.6042 14.1355 13.6647 14.3773 13.6647 14.6514C13.6647 14.9215 13.6022 15.1593 13.4772 15.3649C13.3523 15.5705 13.1769 15.7297 12.9512 15.8426C12.7255 15.9555 12.4655 16.0119 12.1712 16.0119H11.5303C11.5101 16.0119 11.5 16.022 11.5 16.0421V17.4026C11.5 17.4308 11.492 17.453 11.4758 17.4691C11.4597 17.4852 11.4375 17.4933 11.4093 17.4933H10.454C10.4258 17.4933 10.4036 17.4852 10.3875 17.4691C10.3713 17.453 10.3633 17.4308 10.3633 17.4026V13.3514C10.3633 13.3232 10.3713 13.3011 10.3875 13.2849C10.4036 13.2688 10.4258 13.2607 10.454 13.2607H12.2256ZM12.0382 15.1049C12.1873 15.1049 12.3062 15.0666 12.3949 14.99C12.4876 14.9094 12.534 14.8046 12.534 14.6756C12.534 14.5426 12.4876 14.4358 12.3949 14.3552C12.3062 14.2745 12.1873 14.2342 12.0382 14.2342H11.5303C11.5101 14.2342 11.5 14.2443 11.5 14.2645V15.0747C11.5 15.0949 11.5101 15.1049 11.5303 15.1049H12.0382Z" fill="#374151"/>
</svg>
