<svg width="24" height="24" viewBox="0 0 24 24" fill="none" xmlns="http://www.w3.org/2000/svg">
<path d="M18.899 16.375L21.1978 14.875V18.375L18.899 16.875V16.375Z" fill="#374151"/>
<path d="M12.0518 14.845C12.0518 14.0165 12.7233 13.345 13.5518 13.345H17.399C18.2275 13.345 18.899 14.0165 18.899 14.845V18.405C18.899 19.2335 18.2275 19.905 17.399 19.905H13.5518C12.7233 19.905 12.0518 19.2335 12.0518 18.405V14.845Z" stroke="#374151" stroke-width="1.5" stroke-linejoin="round"/>
<path d="M18.899 16.375L21.1978 14.875V18.375L18.899 16.875V16.375Z" stroke="#374151" stroke-width="1.5" stroke-linejoin="round"/>
<path fill-rule="evenodd" clip-rule="evenodd" d="M9.75 22V20.5H6.75C6.33579 20.5 6 20.1642 6 19.75V9.75073H9.75V9.75H10.0589C11.2753 9.71923 12.2518 8.72301 12.2509 7.49913L12.248 3.5H17.25C17.6642 3.5 18 3.83579 18 4.25V9.75H19.5V4.25C19.5 3.00736 18.4926 2 17.25 2H12.1177C11.5207 2 10.9482 2.23725 10.5262 2.65951L5.15851 8.03055C4.73686 8.45247 4.5 9.02455 4.5 9.62105V19.75C4.5 20.9926 5.50736 22 6.75 22H9.75ZM7.05913 8.25073L10.7488 4.55876L10.7509 7.5002C10.7512 7.91462 10.4153 8.25073 10.0009 8.25073H7.05913Z" fill="#374151"/>
</svg>
