<svg width="24" height="24" viewBox="0 0 24 24" fill="none" xmlns="http://www.w3.org/2000/svg">
<path d="M17.5841 7.085C17.584 5.38122 16.2028 4 14.4991 4C12.7953 4 11.4141 5.38122 11.4141 7.085M17.5841 7.085C17.5841 8.7888 16.2029 10.17 14.4991 10.17C12.7953 10.17 11.4141 8.7888 11.4141 7.085M17.5841 7.085L21.25 7.08496M11.4141 7.085L2.75 7.08496M6.41594 16.915C6.41594 15.2112 7.79714 13.83 9.50094 13.83C11.2047 13.83 12.5859 15.2112 12.5859 16.915M6.41594 16.915C6.41594 18.6188 7.79714 20 9.50094 20C11.2047 20 12.5859 18.6188 12.5859 16.915M6.41594 16.915L2.75 16.915M12.5859 16.915L21.25 16.915" stroke="#374151" stroke-width="1.5" stroke-linecap="round" stroke-linejoin="round"/>
</svg>
