<svg width="24" height="24" viewBox="0 0 24 24" fill="none" xmlns="http://www.w3.org/2000/svg">
<path d="M9.52732 8.55957C9.52732 9.04174 9.13644 9.43262 8.65427 9.43262C8.1721 9.43262 7.78122 9.04174 7.78122 8.55957C7.78122 8.0774 8.1721 7.68652 8.65427 7.68652C9.13644 7.68652 9.52732 8.0774 9.52732 8.55957Z" fill="#374151"/>
<path d="M20.0021 13.6181V5.5C20.0021 4.67157 19.3305 4 18.5021 4H5.50208C4.67365 4 4.00208 4.67157 4.00208 5.5V17.7958M20.0021 13.6181V18.5C20.0021 19.3284 19.3305 20 18.5021 20H5.50208C4.67365 20 4.00208 19.3284 4.00208 18.5V17.7958M20.0021 13.6181L17.5717 10.2565C16.8819 9.30236 15.4121 9.47848 14.9673 10.5685L12.9896 15.4149C12.5501 16.492 11.1049 16.6805 10.4038 15.7521L9.18823 14.1425C8.59011 13.3505 7.40154 13.3473 6.79914 14.136L4.00208 17.7958M9.52732 8.55957C9.52732 9.04174 9.13644 9.43262 8.65427 9.43262C8.1721 9.43262 7.78122 9.04174 7.78122 8.55957C7.78122 8.0774 8.1721 7.68652 8.65427 7.68652C9.13644 7.68652 9.52732 8.0774 9.52732 8.55957Z" stroke="#374151" stroke-width="1.5" stroke-linecap="round" stroke-linejoin="round"/>
</svg>
