<svg width="24" height="24" viewBox="0 0 24 24" fill="none" xmlns="http://www.w3.org/2000/svg">
<path d="M12 2.00061C16.3644 2.00061 20.073 4.79819 21.4375 8.6969C21.4514 8.72826 21.4611 8.76111 21.4707 8.79456C21.8113 9.80127 21.999 10.8789 21.999 12.0006C21.999 13.1198 21.8119 14.195 21.4727 15.1998C21.4627 15.2357 21.4524 15.2708 21.4375 15.3043C20.0729 19.2029 16.3643 22.0006 12 22.0006C7.63896 22.0006 3.93251 19.2072 2.56543 15.3131C2.54129 15.2608 2.52136 15.2061 2.50977 15.1481C2.18163 14.1581 2.00099 13.1006 2.00098 12.0006C2.00098 10.9003 2.18147 9.84235 2.50977 8.85217C2.52134 8.79448 2.54145 8.74019 2.56543 8.68811C3.93245 4.79396 7.63889 2.00062 12 2.00061ZM9.1084 15.7506C9.2977 16.6913 9.55398 17.534 9.86035 18.2428C10.1979 19.0237 10.581 19.6084 10.9678 19.9869C11.3032 20.3152 11.6115 20.4622 11.8848 20.4938L12 20.5006C12.3008 20.5006 12.6487 20.3622 13.0322 19.9869C13.4191 19.6084 13.802 19.0238 14.1396 18.2428C14.4461 17.534 14.7023 16.6913 14.8916 15.7506L9.1084 15.7506ZM4.37207 15.7506C5.33241 17.7006 7.01723 19.2295 9.07617 19.984C8.85937 19.6338 8.66103 19.2494 8.4834 18.8385C8.09854 17.9482 7.79155 16.9016 7.58008 15.7506H4.37207ZM16.4199 15.7506C16.2084 16.9016 15.9015 17.9482 15.5166 18.8385C15.3389 19.2496 15.1398 19.6337 14.9229 19.984C16.9822 19.2296 18.6674 17.7008 19.6279 15.7506H16.4199ZM3.80469 9.75061C3.60836 10.4674 3.50098 11.2215 3.50098 12.0006C3.50099 12.7798 3.60833 13.5337 3.80469 14.2506H7.36719C7.29173 13.5257 7.25098 12.7717 7.25098 11.9996C7.25099 11.2281 7.29182 10.475 7.36719 9.75061H3.80469ZM8.87402 9.75061C8.79369 10.4656 8.75099 11.2192 8.75098 11.9996C8.75098 12.7806 8.79456 13.5351 8.875 14.2506L15.126 14.2506C15.2064 13.5351 15.25 12.7806 15.25 11.9996C15.25 11.2192 15.2063 10.4656 15.126 9.75061L8.87402 9.75061ZM16.6338 9.75061C16.7092 10.475 16.75 11.2281 16.75 11.9996C16.75 12.7717 16.7093 13.5257 16.6338 14.2506H20.1953C20.3917 13.5337 20.499 12.7798 20.499 12.0006C20.499 11.2215 20.3916 10.4674 20.1953 9.75061L16.6338 9.75061ZM9.07617 4.01624C7.01706 4.77072 5.33244 6.3005 4.37207 8.25061H7.58008C7.79156 7.09926 8.09841 6.05221 8.4834 5.16174C8.66106 4.75084 8.85933 4.3664 9.07617 4.01624ZM12 3.50061C11.6991 3.50062 11.3512 3.63827 10.9678 4.01331C10.5809 4.39177 10.198 4.97652 9.86035 5.75745C9.55383 6.46645 9.29773 7.3095 9.1084 8.25061L14.8916 8.25061C14.7022 7.3095 14.4462 6.46644 14.1396 5.75745C13.802 4.97653 13.4191 4.39177 13.0322 4.01331C12.6488 3.63831 12.3009 3.50061 12 3.50061ZM14.9229 4.01624C15.1398 4.36651 15.3388 4.75067 15.5166 5.16174C15.9016 6.0522 16.2084 7.09928 16.4199 8.25061H19.6279C18.6674 6.30022 16.9824 4.7706 14.9229 4.01624Z" fill="#374151"/>
</svg>
