<svg width="24" height="24" viewBox="0 0 24 24" fill="none" xmlns="http://www.w3.org/2000/svg">
<path d="M11.3977 7.07129L10.6043 6.53799C9.76525 5.97397 8.65302 6.03885 7.88523 6.69662L5.93729 8.36544C5.66546 8.59832 5.31932 8.72631 4.96138 8.72631H2.75012V14.7558H4.83778C5.26895 14.7558 5.67927 14.9414 5.96405 15.2651L8.30329 17.9244C8.80574 18.4956 9.65623 18.6002 10.2821 18.1678L11.2766 17.4808L12.3674 17.8509C12.9878 18.0614 13.673 17.845 14.0599 17.3163L14.7933 16.314L15.5615 16.4176C16.1776 16.5006 16.7811 16.195 17.0787 15.6493L17.3408 15.1688M13.9678 10.305L11.3759 12.3407C10.7898 12.801 9.95463 12.7612 9.41494 12.2473L9.34685 12.1824C8.73775 11.6024 8.72459 10.6349 9.31769 10.0385L12.2821 7.05747C13.3931 5.94026 15.1791 5.87286 16.3711 6.90315L18.058 8.36117C18.3305 8.5967 18.6787 8.72631 19.0389 8.72631H21.2501V15.1688H17.3408M13.9678 10.305L14.5044 9.88359M13.9678 10.305L17.0949 13.3121C17.5824 13.7809 17.6959 14.5179 17.372 15.1116L17.3408 15.1688" stroke="#374151" stroke-width="1.5" stroke-linecap="round" stroke-linejoin="round"/>
</svg>
