<svg width="24" height="24" viewBox="0 0 24 24" fill="none" xmlns="http://www.w3.org/2000/svg">
<path d="M20.0001 17.0518V12C20.0001 7.58174 16.4183 4 12 4C7.58174 4 4 7.58174 4 12V17.0518M19.9998 14.041V19.75C19.9998 20.5784 19.3282 21.25 18.4998 21.25H13.9998M6.50006 18.75H5.50006C4.67163 18.75 4.00006 18.0784 4.00006 17.25V13.75C4.00006 12.9216 4.67163 12.25 5.50006 12.25H6.50006C7.32849 12.25 8.00006 12.9216 8.00006 13.75V17.25C8.00006 18.0784 7.32849 18.75 6.50006 18.75ZM17.5 18.75H18.5C19.3284 18.75 20 18.0784 20 17.25V13.75C20 12.9216 19.3284 12.25 18.5 12.25H17.5C16.6716 12.25 16 12.9216 16 13.75V17.25C16 18.0784 16.6716 18.75 17.5 18.75Z" stroke="#374151" stroke-width="1.5" stroke-linecap="round" stroke-linejoin="round"/>
</svg>
