<svg width="24" height="24" viewBox="0 0 24 24" fill="none" xmlns="http://www.w3.org/2000/svg">
<path fill-rule="evenodd" clip-rule="evenodd" d="M11.55 4.90354C11.8167 4.70354 12.1833 4.70354 12.45 4.90354L18.95 9.77854C19.1389 9.92018 19.25 10.1425 19.25 10.3785V18.5C19.25 18.9142 18.9142 19.25 18.5 19.25H12.75V16.25C12.75 15.8358 12.4142 15.5 12 15.5C11.5858 15.5 11.25 15.8358 11.25 16.25V19.25H5.5C5.08579 19.25 4.75 18.9142 4.75 18.5V10.3785C4.75 10.1425 4.86115 9.92018 5.05 9.77854L11.55 4.90354ZM11.9932 20.75H5.5C4.25736 20.75 3.25 19.7426 3.25 18.5V10.3785C3.25 9.67034 3.58344 9.00346 4.15 8.57854L10.65 3.70354C11.45 3.10354 12.55 3.10354 13.35 3.70354L19.85 8.57854C20.4166 9.00346 20.75 9.67034 20.75 10.3785V18.5C20.75 19.7426 19.7426 20.75 18.5 20.75H12.0068C12.0046 20.75 12.0023 20.75 12 20.75C11.9977 20.75 11.9954 20.75 11.9932 20.75Z" fill="#374151"/>
</svg>
