<svg width="24" height="24" viewBox="0 0 24 24" fill="none" xmlns="http://www.w3.org/2000/svg">
<path fill-rule="evenodd" clip-rule="evenodd" d="M4.25 6C3.83579 6 3.5 6.33579 3.5 6.75V17.25C3.5 17.6642 3.83579 18 4.25 18H19.75C20.1642 18 20.5 17.6642 20.5 17.25V6.75C20.5 6.33579 20.1642 6 19.75 6H12H4.25ZM2 6.75C2 5.50736 3.00736 4.5 4.25 4.5H12H19.75C20.9926 4.5 22 5.50736 22 6.75V17.25C22 18.4926 20.9926 19.5 19.75 19.5H4.25C3.00736 19.5 2 18.4926 2 17.25V6.75ZM6.83685 9.85998C6.83685 8.96733 7.56048 8.2437 8.45312 8.2437C9.34577 8.2437 10.0694 8.96733 10.0694 9.85998C10.0694 10.7526 9.34577 11.4763 8.45312 11.4763C7.56048 11.4763 6.83685 10.7526 6.83685 9.85998ZM6.50055 14.3251C6.50055 13.9173 6.83113 13.5867 7.23892 13.5867H9.66723C10.075 13.5867 10.4056 13.9173 10.4056 14.3251V14.5053H6.50055V14.3251ZM7.23892 12.0867C6.0027 12.0867 5.00055 13.0889 5.00055 14.3251V15.2553C5.00055 15.6695 5.33633 16.0053 5.75055 16.0053H11.1556C11.5698 16.0053 11.9056 15.6695 11.9056 15.2553V14.3251C11.9056 13.0889 10.9034 12.0867 9.66723 12.0867H7.23892ZM19 10.5C19 10.9142 18.6642 11.25 18.25 11.25H14.15C13.7358 11.25 13.4 10.9142 13.4 10.5C13.4 10.0858 13.7358 9.75 14.15 9.75H18.25C18.6642 9.75 19 10.0858 19 10.5ZM16.1504 14.25C16.5646 14.25 16.9004 13.9142 16.9004 13.5C16.9004 13.0858 16.5646 12.75 16.1504 12.75H14.1504C13.7362 12.75 13.4004 13.0858 13.4004 13.5C13.4004 13.9142 13.7362 14.25 14.1504 14.25H16.1504Z" fill="#374151"/>
</svg>
