<svg width="24" height="24" viewBox="0 0 24 24" fill="none" xmlns="http://www.w3.org/2000/svg">
<path fill-rule="evenodd" clip-rule="evenodd" d="M14.6095 1.50461C13.7812 1.50461 13.1096 2.17603 13.1095 3.00437L13.1094 3.75162V3.75181L13.1096 6H7.375C4.40647 6 2 8.40647 2 11.375V17.25C2 18.4926 3.00736 19.5 4.25 19.5H7.375H12H19.75C20.9926 19.5 22 18.4926 22 17.25V11.25C22 8.35051 19.6495 6 16.75 6H14.6096L14.6094 4.50174H16.5012C17.3287 4.50174 17.9996 3.83095 17.9998 3.00341C17.9999 2.17568 17.3289 1.50461 16.5012 1.50461H14.6095ZM16.75 7.5H11.0999C12.117 8.47797 12.75 9.85256 12.75 11.375V18H19.75C20.1642 18 20.5 17.6642 20.5 17.25V11.25C20.5 9.17893 18.8211 7.5 16.75 7.5ZM11.25 11.375V18H7.375H4.25C3.83579 18 3.5 17.6642 3.5 17.25V11.375C3.5 9.2349 5.2349 7.5 7.375 7.5C9.5151 7.5 11.25 9.2349 11.25 11.375Z" fill="#374151"/>
</svg>
