<svg width="24" height="24" viewBox="0 0 24 24" fill="none" xmlns="http://www.w3.org/2000/svg">
<path d="M18.5 3.25C19.7426 3.25 20.75 4.25736 20.75 5.5V18.5C20.75 19.7426 19.7426 20.75 18.5 20.75H5.5C4.25736 20.75 3.25 19.7426 3.25 18.5V5.5C3.25 4.25736 4.25736 3.25 5.5 3.25H18.5ZM5.5 4.75C5.08579 4.75 4.75 5.08579 4.75 5.5V18.5C4.75 18.9142 5.08579 19.25 5.5 19.25H18.5C18.9142 19.25 19.25 18.9142 19.25 18.5V5.5C19.25 5.08579 18.9142 4.75 18.5 4.75H5.5ZM12 10.4639C12.4138 10.464 12.7495 10.8002 12.75 11.2139V15.4385C12.75 15.8526 12.4141 16.1883 12 16.1885C11.5859 16.1883 11.25 15.8526 11.25 15.4385V11.2139C11.2505 10.8002 11.5863 10.464 12 10.4639ZM12.001 7.76953C12.4975 7.77001 12.9002 8.1733 12.9004 8.66992C12.9002 9.1665 12.4975 9.56983 12.001 9.57031C11.5041 9.57031 11.0998 9.1668 11.0996 8.66992C11.0998 8.173 11.504 7.76953 12.001 7.76953Z" fill="#374151"/>
</svg>
