<svg width="24" height="24" viewBox="0 0 24 24" fill="none" xmlns="http://www.w3.org/2000/svg">
<path d="M14.7959 3.00002C15.3925 3.00007 15.9648 3.23732 16.3867 3.6592L20.3408 7.6133C20.7626 8.03522 21 8.6075 21 9.20412V14.7959C20.9999 15.3926 20.7627 15.9648 20.3408 16.3867L16.3867 20.3408C15.9648 20.7627 15.3925 21 14.7959 21H9.2041C8.60746 21 8.03519 20.7627 7.61328 20.3408L3.65918 16.3867C3.23736 15.9648 3.00002 15.3925 3 14.7959V9.20412C3.00005 8.60747 3.2373 8.03521 3.65918 7.6133L7.61328 3.6592C8.0352 3.23737 8.60747 3.00003 9.2041 3.00002H14.7959ZM9.2041 4.50002C9.00528 4.50002 8.81446 4.57921 8.67383 4.71974L4.71973 8.67385C4.57913 8.81445 4.50005 9.00528 4.5 9.20412V14.7959C4.50001 14.9947 4.5792 15.1856 4.71973 15.3262L8.67383 19.2803C8.81443 19.4209 9.00527 19.5 9.2041 19.5H14.7959C14.9947 19.5 15.1855 19.4208 15.3262 19.2803L19.2803 15.3262C19.4209 15.1856 19.4999 14.9947 19.5 14.7959V9.20412C19.5 9.00531 19.4208 8.81447 19.2803 8.67385L15.3262 4.71974C15.1856 4.57915 14.9947 4.50007 14.7959 4.50002H9.2041ZM12 10.4639C12.4138 10.464 12.7495 10.8002 12.75 11.2139V15.4385C12.75 15.8526 12.4141 16.1883 12 16.1885C11.5859 16.1883 11.25 15.8526 11.25 15.4385V11.2139C11.2505 10.8002 11.5862 10.4641 12 10.4639ZM12.001 7.76955C12.4975 7.77004 12.9002 8.17331 12.9004 8.66994C12.9002 9.16651 12.4975 9.56984 12.001 9.57033C11.5041 9.57033 11.0998 9.16682 11.0996 8.66994C11.0998 8.17301 11.504 7.76955 12.001 7.76955Z" fill="#374151"/>
</svg>
