<svg width="24" height="24" viewBox="0 0 24 24" fill="none" xmlns="http://www.w3.org/2000/svg">
<path d="M15.8726 3.03906C16.6763 3.03906 17.4198 3.46803 17.8218 4.16406L21.6958 10.875C22.0977 11.5712 22.0977 12.4288 21.6958 13.125L17.8218 19.8359C17.4198 20.532 16.6763 20.9609 15.8726 20.9609H8.12354C7.31997 20.9607 6.57713 20.5318 6.17529 19.8359L2.30029 13.125C1.89862 12.429 1.89864 11.571 2.30029 10.875L6.17529 4.16406C6.57712 3.46813 7.31996 3.03929 8.12354 3.03906H15.8726ZM8.12354 4.53906C7.85583 4.53929 7.60799 4.68219 7.47412 4.91406L3.6001 11.625C3.46628 11.8569 3.46628 12.1431 3.6001 12.375L7.47412 19.0859C7.608 19.3178 7.85584 19.4607 8.12354 19.4609H15.8726C16.1404 19.4609 16.3879 19.3178 16.522 19.0859L20.397 12.375C20.5309 12.143 20.5309 11.857 20.397 11.625L16.522 4.91406C16.388 4.68221 16.1404 4.53906 15.8726 4.53906H8.12354ZM11.9995 10.4639C12.4134 10.4639 12.749 10.8001 12.7495 11.2139V15.4385C12.7495 15.8527 12.4137 16.1885 11.9995 16.1885C11.5855 16.1882 11.2495 15.8525 11.2495 15.4385V11.2139C11.25 10.8003 11.5859 10.4642 11.9995 10.4639ZM12.0005 7.76953C12.4972 7.76987 12.8997 8.17321 12.8999 8.66992C12.8997 9.16659 12.4971 9.56998 12.0005 9.57031C11.5037 9.5702 11.0993 9.16673 11.0991 8.66992C11.0993 8.17307 11.5036 7.76964 12.0005 7.76953Z" fill="#374151"/>
</svg>
