<svg width="24" height="24" viewBox="0 0 24 24" fill="none" xmlns="http://www.w3.org/2000/svg">
<path d="M12 2C17.5228 2 22 6.47715 22 12C22 17.5228 17.5228 22 12 22C6.47715 22 2 17.5228 2 12C2 6.47715 6.47715 2 12 2ZM12 3.5C7.30558 3.5 3.5 7.30558 3.5 12C3.5 16.6944 7.30558 20.5 12 20.5C16.6944 20.5 20.5 16.6944 20.5 12C20.5 7.30558 16.6944 3.5 12 3.5ZM12 10.4639C12.4138 10.464 12.7495 10.8002 12.75 11.2139V15.4385C12.75 15.8526 12.4141 16.1883 12 16.1885C11.5859 16.1883 11.25 15.8526 11.25 15.4385V11.2139C11.2505 10.8002 11.5863 10.464 12 10.4639ZM12.001 7.76953C12.4975 7.77001 12.9002 8.1733 12.9004 8.66992C12.9002 9.1665 12.4975 9.56983 12.001 9.57031C11.5041 9.57031 11.0998 9.1668 11.0996 8.66992C11.0998 8.173 11.504 7.76953 12.001 7.76953Z" fill="#374151"/>
</svg>
