<svg width="24" height="24" viewBox="0 0 24 24" fill="none" xmlns="http://www.w3.org/2000/svg">
<path d="M14.1814 9.81856L19.6049 4.39506M14.1814 14.1814L19.6049 19.6049M4.39511 19.6048L9.81861 14.1813M4.39511 4.39511L9.81861 9.81862M11.9999 15.085C10.2961 15.085 8.9149 13.7038 8.9149 12C8.9149 10.2962 10.2961 8.915 11.9999 8.915C13.7037 8.915 15.085 10.2962 15.085 12C15.085 13.7038 13.7037 15.085 11.9999 15.085ZM12 21.2499C6.89151 21.2499 2.75012 17.1086 2.75012 12C2.75012 6.89151 6.89151 2.75022 12 2.75022C17.1086 2.75022 21.25 6.89151 21.25 12C21.25 17.1086 17.1086 21.2499 12 21.2499Z" stroke="#374151" stroke-width="1.5" stroke-linecap="round" stroke-linejoin="round"/>
</svg>
