<svg width="24" height="24" viewBox="0 0 24 24" fill="none" xmlns="http://www.w3.org/2000/svg">
<path fill-rule="evenodd" clip-rule="evenodd" d="M10.5861 4.92893C12.9292 2.58579 16.7282 2.58579 19.0714 4.92893C21.4145 7.27208 21.4145 11.0711 19.0714 13.4142L17.303 15.1825L16.2424 14.1219L18.0107 12.3536C19.7681 10.5962 19.7681 7.74695 18.0107 5.98959C16.2534 4.23223 13.4041 4.23223 11.6467 5.98959L9.87843 7.75791L8.81777 6.69725L10.5861 4.92893ZM14.1211 16.2432L15.1817 17.3039L13.4145 19.0711C11.0714 21.4142 7.27238 21.4142 4.92923 19.0711C2.58609 16.7279 2.58609 12.9289 4.92923 10.5858L6.69645 8.81857L7.75711 9.87923L5.98989 11.6464C4.23254 13.4038 4.23253 16.253 5.98989 18.0104C7.74725 19.7678 10.5965 19.7678 12.3539 18.0104L14.1211 16.2432ZM14.6517 10.409C14.9445 10.1161 14.9445 9.64124 14.6517 9.34835C14.3588 9.05546 13.8839 9.05546 13.591 9.34835L9.34835 13.591C9.05546 13.8839 9.05546 14.3588 9.34835 14.6517C9.64124 14.9445 10.1161 14.9445 10.409 14.6517L14.6517 10.409Z" fill="#374151"/>
</svg>
