<svg width="24" height="24" viewBox="0 0 24 24" fill="none" xmlns="http://www.w3.org/2000/svg">
<path d="M12.75 16.75C12.75 16.3358 12.4142 16 12 16C11.5858 16 11.25 16.3358 11.25 16.75V18.25C11.25 18.6642 11.5858 19 12 19C12.4142 19 12.75 18.6642 12.75 18.25V16.75Z" fill="#374151"/>
<path fill-rule="evenodd" clip-rule="evenodd" d="M12 2C9.1005 2 6.75 4.3505 6.75 7.25V9.125H5.5C4.25736 9.125 3.25 10.1324 3.25 11.375V19.7495C3.25 20.9922 4.25736 21.9995 5.5 21.9995H18.5C19.7426 21.9995 20.75 20.9922 20.75 19.7495V11.375C20.75 10.1324 19.7426 9.125 18.5 9.125H17.25V7.25C17.25 4.35051 14.8995 2 12 2ZM15.75 7.25V9.125H8.25V7.25C8.25 5.17893 9.92893 3.5 12 3.5C14.0711 3.5 15.75 5.17893 15.75 7.25ZM5.5 10.625C5.08579 10.625 4.75 10.9608 4.75 11.375V19.7495C4.75 20.1637 5.08579 20.4995 5.5 20.4995H18.5C18.9142 20.4995 19.25 20.1637 19.25 19.7495V11.375C19.25 10.9608 18.9142 10.625 18.5 10.625H5.5Z" fill="#374151"/>
</svg>
