<svg width="24" height="24" viewBox="0 0 24 24" fill="none" xmlns="http://www.w3.org/2000/svg">
<path fill-rule="evenodd" clip-rule="evenodd" d="M5.49936 5.4479C5.63259 5.3266 5.8097 5.25263 6.0041 5.25256L14.9995 5.2494C15.4138 5.24926 15.7498 5.58486 15.7499 5.99898C15.75 6.41311 15.4143 6.74894 15 6.74909L7.80983 6.75161L18.5285 17.4703C18.8214 17.7632 18.8214 18.2381 18.5285 18.531C18.2356 18.8238 17.7608 18.8238 17.4679 18.531L6.75394 7.81704L6.75166 14.9939C6.75153 15.408 6.41557 15.7436 6.00126 15.7435C5.58696 15.7434 5.25121 15.4075 5.25134 14.9934L5.25418 6.06087C5.23843 5.85061 5.31095 5.63497 5.47174 5.47418C5.48078 5.46514 5.48999 5.45638 5.49936 5.4479Z" fill="#374151"/>
</svg>
