<svg width="24" height="24" viewBox="0 0 24 24" fill="none" xmlns="http://www.w3.org/2000/svg">
<path fill-rule="evenodd" clip-rule="evenodd" d="M18.4779 5.42852C18.3475 5.31896 18.1793 5.25294 17.9956 5.25288L9.00027 5.24973C8.58597 5.24958 8.24999 5.58518 8.24984 5.9993C8.2497 6.41343 8.58544 6.74926 8.99974 6.74941L16.1896 6.75193L5.47113 17.4704C5.17824 17.7633 5.17824 18.2382 5.47113 18.5311C5.76403 18.824 6.2389 18.824 6.53179 18.5311L17.2458 7.81708L17.2481 14.9942C17.2482 15.4083 17.5842 15.7439 17.9985 15.7438C18.4128 15.7437 18.7485 15.4079 18.7484 14.9937L18.7456 6.05986C18.761 5.84996 18.6884 5.63481 18.5279 5.47431C18.5118 5.45815 18.4951 5.44289 18.4779 5.42852Z" fill="#374151"/>
</svg>
