<svg width="24" height="24" viewBox="0 0 24 24" fill="none" xmlns="http://www.w3.org/2000/svg">
<path fill-rule="evenodd" clip-rule="evenodd" d="M3.24951 11.9984C3.24915 12.1907 3.32231 12.3832 3.469 12.5299L9.46499 18.5301C9.75778 18.8231 10.2327 18.8233 10.5256 18.5305C10.8186 18.2377 10.8188 17.7629 10.526 17.4699L5.80606 12.7466L20.0009 12.7466C20.4151 12.7466 20.7509 12.4108 20.7509 11.9966C20.7509 11.5824 20.4151 11.2466 20.0009 11.2466L5.81258 11.2466L10.526 6.53016C10.8188 6.23717 10.8187 5.7623 10.5257 5.4695C10.2327 5.1767 9.75781 5.17685 9.46501 5.46984L3.51205 11.4266C3.35135 11.5641 3.24951 11.7685 3.24951 11.9966C3.24951 11.9972 3.24951 11.9978 3.24951 11.9984Z" fill="#374151"/>
</svg>
