<svg width="24" height="24" viewBox="0 0 24 24" fill="none" xmlns="http://www.w3.org/2000/svg">
<path fill-rule="evenodd" clip-rule="evenodd" d="M11.6766 3.76117C11.8141 3.60048 12.0185 3.49864 12.2466 3.49864C12.2472 3.49864 12.2477 3.49864 12.2483 3.49864C12.4407 3.49827 12.6331 3.57143 12.7799 3.71813L18.7801 9.71412C19.0731 10.0069 19.0733 10.4818 18.7805 10.7748C18.4877 11.0678 18.0129 11.0679 17.7199 10.7751L12.9966 6.05519L12.9966 20.25C12.9966 20.6642 12.6608 21 12.2466 21C11.8324 21 11.4966 20.6642 11.4966 20.25L11.4966 6.06171L6.78016 10.7751C6.48717 11.0679 6.0123 11.0678 5.7195 10.7748C5.4267 10.4818 5.42685 10.0069 5.71984 9.71414L11.6766 3.76117Z" fill="#374151"/>
</svg>
