<svg width="24" height="24" viewBox="0 0 24 24" fill="none" xmlns="http://www.w3.org/2000/svg">
<path fill-rule="evenodd" clip-rule="evenodd" d="M11.1766 20.2388C11.3141 20.3995 11.5185 20.5014 11.7466 20.5014C11.7471 20.5014 11.7477 20.5014 11.7483 20.5014C11.9406 20.5018 12.1331 20.4286 12.2799 20.2819L18.2801 14.2859C18.5731 13.9931 18.5733 13.5182 18.2805 13.2252C17.9877 12.9322 17.5129 12.9321 17.2199 13.2249L12.4966 17.9448L12.4966 3.75C12.4966 3.33579 12.1608 3 11.7466 3C11.3324 3 10.9966 3.33579 10.9966 3.75L10.9966 17.9383L6.28016 13.2249C5.98717 12.9321 5.5123 12.9322 5.2195 13.2252C4.9267 13.5182 4.92685 13.9931 5.21984 14.2859L11.1766 20.2388Z" fill="#374151"/>
</svg>
