<svg width="24" height="24" viewBox="0 0 24 24" fill="none" xmlns="http://www.w3.org/2000/svg">
<path fill-rule="evenodd" clip-rule="evenodd" d="M5.99915 10.245C6.96564 10.245 7.74915 11.0285 7.74915 11.995V12.005C7.74915 12.9715 6.96564 13.755 5.99915 13.755C5.03265 13.755 4.24915 12.9715 4.24915 12.005V11.995C4.24915 11.0285 5.03265 10.245 5.99915 10.245ZM17.9991 10.245C18.9656 10.245 19.7491 11.0285 19.7491 11.995V12.005C19.7491 12.9715 18.9656 13.755 17.9991 13.755C17.0326 13.755 16.2491 12.9715 16.2491 12.005V11.995C16.2491 11.0285 17.0326 10.245 17.9991 10.245ZM13.7491 11.995C13.7491 11.0285 12.9656 10.245 11.9991 10.245C11.0326 10.245 10.2491 11.0285 10.2491 11.995V12.005C10.2491 12.9715 11.0326 13.755 11.9991 13.755C12.9656 13.755 13.7491 12.9715 13.7491 12.005V11.995Z" fill="#374151"/>
</svg>
