<svg width="24" height="24" viewBox="0 0 24 24" fill="none" xmlns="http://www.w3.org/2000/svg">
<path fill-rule="evenodd" clip-rule="evenodd" d="M5.48523 4.25C4.79487 4.25 4.23523 4.80964 4.23523 5.5C4.23523 6.19036 4.79487 6.75 5.48523 6.75H5.49523C6.18559 6.75 6.74523 6.19036 6.74523 5.5C6.74523 4.80964 6.18559 4.25 5.49523 4.25H5.48523ZM10.745 5.5C10.745 4.80964 11.3046 4.25 11.995 4.25H12.005C12.6954 4.25 13.255 4.80964 13.255 5.5C13.255 6.19036 12.6954 6.75 12.005 6.75H11.995C11.3046 6.75 10.745 6.19036 10.745 5.5ZM10.745 18.5C10.745 17.8096 11.3046 17.25 11.995 17.25H12.005C12.6954 17.25 13.255 17.8096 13.255 18.5C13.255 19.1904 12.6954 19.75 12.005 19.75H11.995C11.3046 19.75 10.745 19.1904 10.745 18.5ZM11.995 10.75C11.3046 10.75 10.745 11.3096 10.745 12C10.745 12.6904 11.3046 13.25 11.995 13.25H12.005C12.6954 13.25 13.255 12.6904 13.255 12C13.255 11.3096 12.6954 10.75 12.005 10.75H11.995ZM17.2548 5.5C17.2548 4.80964 17.8144 4.25 18.5048 4.25H18.5148C19.2051 4.25 19.7648 4.80964 19.7648 5.5C19.7648 6.19036 19.2051 6.75 18.5148 6.75H18.5048C17.8144 6.75 17.2548 6.19036 17.2548 5.5ZM18.5048 17.25C17.8144 17.25 17.2548 17.8096 17.2548 18.5C17.2548 19.1904 17.8144 19.75 18.5048 19.75H18.5148C19.2051 19.75 19.7648 19.1904 19.7648 18.5C19.7648 17.8096 19.2051 17.25 18.5148 17.25H18.5048ZM17.2548 12C17.2548 11.3096 17.8144 10.75 18.5048 10.75H18.5148C19.2051 10.75 19.7648 11.3096 19.7648 12C19.7648 12.6904 19.2051 13.25 18.5148 13.25H18.5048C17.8144 13.25 17.2548 12.6904 17.2548 12ZM4.23523 18.5C4.23523 17.8096 4.79487 17.25 5.48523 17.25H5.49523C6.18559 17.25 6.74523 17.8096 6.74523 18.5C6.74523 19.1904 6.18559 19.75 5.49523 19.75H5.48523C4.79487 19.75 4.23523 19.1904 4.23523 18.5ZM5.48523 10.75C4.79487 10.75 4.23523 11.3096 4.23523 12C4.23523 12.6904 4.79487 13.25 5.48523 13.25H5.49523C6.18559 13.25 6.74523 12.6904 6.74523 12C6.74523 11.3096 6.18559 10.75 5.49523 10.75H5.48523Z" fill="#374151"/>
</svg>
