<svg width="24" height="24" viewBox="0 0 24 24" fill="none" xmlns="http://www.w3.org/2000/svg">
<path d="M9.49849 8.37952C9.23652 8.70771 9.07445 9.03663 8.98232 9.36521M7.97008 15.34C8.80521 14.7821 9.16185 14.1962 9.27457 13.5905M15.2564 13.8182C15.0187 13.6113 14.6799 13.3162 14.2544 13.0456M14.2544 13.0456C13.68 12.6802 12.9476 12.3591 12.093 12.3591C10.6053 12.3591 9.84947 13.0661 9.31501 13.5525L9.27457 13.5905M14.2544 13.0456L14.3703 12.8097C14.8283 11.8954 16.2785 10.0785 18.4151 10.1259C20.2519 10.1259 20.7501 11.1563 20.7501 11.9852V17.1358C20.4753 19.2016 18.8572 20.0472 13.4509 20.0472C8.04459 20.0472 4.39771 18.1063 3.25005 17.1358C2.7767 16.5572 3.67117 15.8918 3.65417 15.1608C3.63292 14.247 3.44166 14.3866 3.44166 13.3544C3.44166 9.88376 7.02862 3.95279 11.0081 3.95279C12.2088 3.95279 13.8566 4.84439 13.7001 6.81644C13.5436 8.78849 11.5403 9.5241 9.20822 9.38324L8.98232 9.36521M8.98232 9.36521C8.57713 10.8102 9.52424 12.2488 9.27457 13.5905" stroke="#374151" stroke-width="1.5" stroke-linecap="round" stroke-linejoin="round"/>
</svg>
