<svg width="24" height="24" viewBox="0 0 24 24" fill="none" xmlns="http://www.w3.org/2000/svg">
<path d="M19.8613 3.2627C20.0805 3.2216 20.3069 3.28053 20.4785 3.42285C20.6502 3.56534 20.75 3.77689 20.75 4V14.5215C20.75 14.5333 20.7486 14.545 20.748 14.5566C20.7284 15.368 20.2892 16.0508 19.6855 16.5107C19.0686 16.9808 18.2492 17.25 17.375 17.25C16.5008 17.25 15.6814 16.9808 15.0645 16.5107C14.4468 16.0402 14 15.3362 14 14.5C14 13.6638 14.4468 12.9598 15.0645 12.4893C15.6814 12.0192 16.5008 11.75 17.375 11.75C18.0571 11.75 18.7048 11.9157 19.25 12.2109V8.6084L8.75 10.6191V16.7715C8.74999 16.7833 8.74859 16.795 8.74805 16.8066C8.72838 17.618 8.28916 18.3008 7.68555 18.7607C7.06856 19.2308 6.24921 19.5 5.375 19.5C4.50079 19.5 3.68144 19.2308 3.06445 18.7607C2.44684 18.2902 2 17.5862 2 16.75C2 15.9138 2.44684 15.2098 3.06445 14.7393C3.68144 14.2692 4.50079 14 5.375 14C6.05707 14 6.70478 14.1657 7.25 14.4609V6.25C7.25 5.88923 7.50681 5.57937 7.86133 5.5127L19.8613 3.2627ZM5.375 15.5C4.79952 15.5 4.3067 15.6789 3.97363 15.9326C3.64118 16.1859 3.5 16.4816 3.5 16.75C3.5 17.0184 3.64118 17.3141 3.97363 17.5674C4.3067 17.8211 4.79952 18 5.375 18C5.95048 18 6.4433 17.8211 6.77637 17.5674C7.10882 17.3141 7.25 17.0184 7.25 16.75C7.25 16.4816 7.10882 16.1859 6.77637 15.9326C6.4433 15.6789 5.95048 15.5 5.375 15.5ZM17.375 13.25C16.7995 13.25 16.3067 13.4289 15.9736 13.6826C15.6412 13.9359 15.5 14.2316 15.5 14.5C15.5 14.7684 15.6412 15.0641 15.9736 15.3174C16.3067 15.5711 16.7995 15.75 17.375 15.75C17.9505 15.75 18.4433 15.5711 18.7764 15.3174C19.1088 15.0641 19.25 14.7684 19.25 14.5C19.25 14.2316 19.1088 13.9359 18.7764 13.6826C18.4433 13.4289 17.9505 13.25 17.375 13.25ZM8.75 6.87207V9.09277L19.25 7.08203V4.90332L8.75 6.87207Z" fill="#374151"/>
</svg>
