<svg width="24" height="24" viewBox="0 0 24 24" fill="none" xmlns="http://www.w3.org/2000/svg">
<path fill-rule="evenodd" clip-rule="evenodd" d="M11.2502 5.99951C11.2502 5.5853 11.586 5.24951 12.0002 5.24951C12.4145 5.24951 12.7502 5.5853 12.7502 5.99951V11.2498H18.0007C18.4149 11.2498 18.7507 11.5855 18.7507 11.9998C18.7507 12.414 18.4149 12.7498 18.0007 12.7498H12.7502V18.0002C12.7502 18.4144 12.4145 18.7502 12.0002 18.7502C11.586 18.7502 11.2502 18.4144 11.2502 18.0002V12.7498H6C5.58579 12.7498 5.25 12.414 5.25 11.9998C5.25 11.5855 5.58579 11.2498 6 11.2498H11.2502V5.99951Z" fill="#374151"/>
</svg>
