<svg width="24" height="24" viewBox="0 0 24 24" fill="none" xmlns="http://www.w3.org/2000/svg">
<path fill-rule="evenodd" clip-rule="evenodd" d="M8.09493 4.75075C7.68072 4.75075 7.34493 5.08654 7.34493 5.50075V7.79077H16.6551V6.62237C16.6551 6.4194 16.5728 6.2251 16.4271 6.08384L15.2699 4.96222C15.13 4.82659 14.9428 4.75075 14.7479 4.75075H8.09493ZM18.1551 7.79077V6.62237C18.1551 6.01347 17.9083 5.43056 17.4711 5.00677L16.3139 3.88515C15.8942 3.47828 15.3325 3.25075 14.7479 3.25075H8.09493C6.85229 3.25075 5.84493 4.25811 5.84493 5.50075V7.79077H5.50049C4.25785 7.79077 3.25049 8.79813 3.25049 10.0408V13.9593C3.25049 15.2019 4.25785 16.2093 5.50049 16.2093H5.84473V18.4997C5.84473 19.7424 6.85208 20.7497 8.09473 20.7497H15.9049C17.1475 20.7497 18.1549 19.7424 18.1549 18.4997V16.2093H18.4996C19.7422 16.2093 20.7496 15.2019 20.7496 13.9593V10.0408C20.7496 8.79813 19.7422 7.79077 18.4996 7.79077H18.1551ZM5.84473 13.9461V14.7093H5.50049C5.08627 14.7093 4.75049 14.3735 4.75049 13.9593V10.0408C4.75049 9.62655 5.08628 9.29077 5.50049 9.29077H18.4996C18.9138 9.29077 19.2496 9.62655 19.2496 10.0408V13.9593C19.2496 14.3735 18.9138 14.7093 18.4996 14.7093H18.1549V13.9461C18.1549 13.5318 17.8191 13.1961 17.4049 13.1961H6.59473C6.18051 13.1961 5.84473 13.5318 5.84473 13.9461ZM7.34473 14.6961V18.4997C7.34473 18.914 7.68051 19.2497 8.09473 19.2497H15.9049C16.3191 19.2497 16.6549 18.914 16.6549 18.4997V14.6961H7.34473Z" fill="#374151"/>
</svg>
