<svg width="24" height="24" viewBox="0 0 24 24" fill="none" xmlns="http://www.w3.org/2000/svg">
<path fill-rule="evenodd" clip-rule="evenodd" d="M7.99806 5.07155C9.46115 4.22683 11.1541 3.86699 12.8343 4.04358C14.5145 4.22018 16.0956 4.92415 17.3511 6.0546C18.2569 6.87022 18.9597 7.87765 19.4128 8.99618L16.28 7.93357C15.8878 7.80052 15.4619 8.01065 15.3289 8.40291C15.1958 8.79518 15.4059 9.22103 15.7982 9.35408L20.2426 10.8616C20.2906 10.8838 20.341 10.9009 20.3931 10.9126L20.5523 10.9666C20.7407 11.0305 20.9467 11.017 21.1251 10.9289C21.3035 10.8409 21.4396 10.6856 21.5035 10.4972L23.1158 5.74269C23.2488 5.35042 23.0387 4.92459 22.6464 4.79156C22.2541 4.65854 21.8283 4.8687 21.6953 5.26097L20.7014 8.19168C20.1624 6.9598 19.3649 5.84942 18.3548 4.93988C16.8639 3.59747 14.9863 2.76151 12.9911 2.5518C10.9959 2.34209 8.98548 2.76941 7.24806 3.77251C5.51063 4.77561 4.13537 6.303 3.31937 8.13575C2.50338 9.96851 2.28854 12.0126 2.70565 13.9749C3.12276 15.9373 4.15041 17.7172 5.64131 19.0596C7.13221 20.402 9.00982 21.238 11.005 21.4477C13.0002 21.6574 15.0106 21.2301 16.7481 20.227C17.1068 20.0199 17.2297 19.5612 17.0226 19.2025C16.8155 18.8438 16.3568 18.7209 15.9981 18.928C14.535 19.7727 12.842 20.1325 11.1618 19.9559C9.48165 19.7793 7.9005 19.0754 6.64501 17.9449C5.38951 16.8145 4.52412 15.3156 4.17287 13.663C3.82162 12.0105 4.00254 10.2892 4.68969 8.74586C5.37685 7.20248 6.53496 5.91627 7.99806 5.07155Z" fill="#374151"/>
</svg>
