<svg width="24" height="24" viewBox="0 0 24 24" fill="none" xmlns="http://www.w3.org/2000/svg">
<path d="M3.54739 9.73566C4.04589 7.87524 5.14434 6.2313 6.67237 5.0588C8.2004 3.8863 10.0726 3.25077 11.9987 3.25077C13.9247 3.25077 15.7969 3.8863 17.325 5.0588C18.853 6.2313 19.9514 7.87524 20.4499 9.73566C20.5516 10.115 20.6164 10.381 20.6552 10.5642M20.4527 14.2639C19.9542 16.1243 18.8557 17.7683 17.3277 18.9408C15.7996 20.1133 13.9274 20.7488 12.0014 20.7488C10.0753 20.7488 8.20312 20.1133 6.67508 18.9408C5.14705 17.7683 4.0486 16.1243 3.55011 14.2639C3.44642 13.8769 3.38063 13.6079 3.34146 13.4245M17.4805 8.99644L20.5612 10.7312L20.6552 10.5642M22.2958 7.65013L20.6552 10.5642M6.50979 15.0036L3.42908 13.2688L3.34146 13.4245M1.69446 16.3499L3.34146 13.4245" stroke="#374151" stroke-width="1.5" stroke-linecap="round" stroke-linejoin="round"/>
</svg>
