<svg width="24" height="24" viewBox="0 0 24 24" fill="none" xmlns="http://www.w3.org/2000/svg">
<path fill-rule="evenodd" clip-rule="evenodd" d="M11.4769 4.03392C11.6914 3.81942 12.014 3.75525 12.2943 3.87134C12.5745 3.98743 12.7572 4.2609 12.7572 4.56425V7.51859C17.9267 7.9021 22.0016 12.2178 22.0016 17.4852C22.0016 18.2076 21.9248 18.9128 21.7788 19.593C21.7045 19.9387 21.399 20.1856 21.0455 20.1856C20.6919 20.1856 20.3864 19.9387 20.3122 19.593C19.5406 16.0001 16.4954 13.2513 12.7572 12.9242V15.8182C12.7572 16.1216 12.5745 16.395 12.2943 16.5111C12.014 16.6272 11.6914 16.563 11.4769 16.3486L5.84993 10.7216C5.70927 10.5809 5.63026 10.3901 5.63026 10.1912C5.63026 9.99232 5.70927 9.80156 5.84993 9.6609L11.4769 4.03392ZM11.2572 8.24087V6.37491L7.44092 10.1912L11.2572 14.0076V12.1416C11.2572 11.7274 11.593 11.3916 12.0072 11.3916C15.4936 11.3916 18.5622 13.1763 20.3505 15.8817C19.6007 11.9571 16.1504 8.99087 12.0072 8.99087C11.593 8.99087 11.2572 8.65508 11.2572 8.24087ZM7.22516 4.0339C7.51806 3.741 7.99293 3.741 8.28582 4.0339C8.57872 4.32679 8.57872 4.80167 8.28582 5.09456L3.7195 9.66088C3.4266 9.95378 3.4266 10.4286 3.71949 10.7215L8.28582 15.2879C8.57872 15.5808 8.57872 16.0556 8.28582 16.3485C7.99293 16.6414 7.51806 16.6414 7.22516 16.3485L2.65883 11.7822C1.78016 10.9035 1.78016 9.4789 2.65884 8.60022L7.22516 4.0339Z" fill="#374151"/>
</svg>
