<svg width="24" height="24" viewBox="0 0 24 24" fill="none" xmlns="http://www.w3.org/2000/svg">
<path d="M5.88084 18.1211L3.19731 20.8046M7.96663 20.2068L6.9238 21.2496M3.79294 16.0352L2.75012 17.078M16.1035 7.89844L13.9822 10.0198M11.8559 19.8535L4.14798 12.1456C3.27989 11.2775 3.7653 9.79113 4.97841 9.60271L8.54722 9.04838C8.86175 8.99953 9.15258 8.85188 9.37766 8.62681L12.8258 5.17871C13.0482 4.95631 13.3348 4.80945 13.6453 4.75888L18.2752 4.00469C19.2864 3.83996 20.1615 4.71507 19.9968 5.72634L19.2426 10.3562C19.192 10.6667 19.0452 10.9533 18.8228 11.1757L15.3747 14.6238C15.1496 14.8489 15.002 15.1397 14.9531 15.4543L14.3988 19.0231C14.2104 20.2362 12.724 20.7216 11.8559 19.8535Z" stroke="#374151" stroke-width="1.5" stroke-linecap="round" stroke-linejoin="round"/>
</svg>
