<svg width="24" height="24" viewBox="0 0 24 24" fill="none" xmlns="http://www.w3.org/2000/svg">
<path d="M20.7021 9.96075C22.434 10.7686 22.434 13.2321 20.7021 14.0399L5.20801 21.2635C3.3366 22.136 1.37656 20.238 2.18848 18.3397L4.77344 12.2957C4.85398 12.1074 4.85391 11.8932 4.77344 11.7049L2.18848 5.66095C1.3766 3.76259 3.33661 1.86465 5.20801 2.73712L20.7021 9.96075ZM20.0684 12.6805C20.6453 12.4112 20.6453 11.5895 20.0684 11.3201L4.57422 4.0965C3.95046 3.80569 3.2969 4.43836 3.56738 5.07111L6.15332 11.1151C6.1717 11.1581 6.18558 11.2031 6.20117 11.2469L10.9414 11.2469C11.3554 11.2471 11.6914 11.5828 11.6914 11.9969C11.6912 12.4108 11.3553 12.7466 10.9414 12.7469L6.2041 12.7469C6.1878 12.7932 6.17273 12.8402 6.15332 12.8856L3.56738 18.9295C3.29685 19.5623 3.95045 20.1949 4.57422 19.9041L20.0684 12.6805Z" fill="#374151"/>
</svg>
