<svg width="24" height="24" viewBox="0 0 24 24" fill="none" xmlns="http://www.w3.org/2000/svg">
<path fill-rule="evenodd" clip-rule="evenodd" d="M10.4859 3.50008L13.5183 3.50008C13.9234 3.50008 14.2519 3.82858 14.2519 4.23384C14.2519 5.95297 16.113 7.02803 17.6021 6.16828C17.9529 5.96574 18.4015 6.08594 18.604 6.43674L20.1204 9.06318C20.323 9.41414 20.2028 9.86294 19.8518 10.0656C18.3626 10.9254 18.3626 13.0748 19.8518 13.9346C20.2028 14.1372 20.323 14.586 20.1204 14.937L18.604 17.5634C18.4015 17.9142 17.9529 18.0344 17.6021 17.8319C16.113 16.9722 14.2519 18.0472 14.2519 19.7663C14.2519 20.1716 13.9234 20.5001 13.5183 20.5001H10.4859C10.0806 20.5001 9.75194 20.1715 9.75194 19.7661C9.75194 18.0462 7.88995 16.9718 6.40079 17.8315C6.04958 18.0343 5.60049 17.9139 5.39779 17.5629L3.88179 14.9371C3.67915 14.5861 3.7994 14.1373 4.15039 13.9346C5.63961 13.0748 5.63958 10.9253 4.15038 10.0655C3.79938 9.8629 3.67913 9.41409 3.88177 9.06311L5.39776 6.43733C5.60046 6.08624 6.04955 5.96588 6.40077 6.16866C7.88995 7.02843 9.75194 5.95398 9.75194 4.23407C9.75194 3.8287 10.0806 3.50008 10.4859 3.50008ZM13.5183 2.00008L10.4859 2.00008C9.25213 2.00008 8.25194 3.00027 8.25194 4.23407C8.25194 4.79892 7.64025 5.15222 7.15077 4.86962C6.08225 4.25271 4.71571 4.61867 4.09872 5.68733L2.58273 8.31311C1.96587 9.38154 2.33195 10.7477 3.40038 11.3646C3.8896 11.647 3.88959 12.3532 3.40039 12.6356C2.33197 13.2525 1.9659 14.6186 2.58275 15.6871L4.09876 18.3129C4.71574 19.3815 6.08227 19.7475 7.15079 19.1306C7.64027 18.848 8.25194 19.2013 8.25194 19.7661C8.25194 20.9999 9.25213 22.0001 10.4859 22.0001H13.5183C14.752 22.0001 15.7519 20.9998 15.7519 19.7663C15.7519 19.2015 16.3633 18.8487 16.8521 19.1309C17.9203 19.7477 19.2863 19.3817 19.903 18.3134L21.4194 15.687C22.0363 14.6186 21.6702 13.2524 20.6018 12.6356C20.1126 12.3531 20.1126 11.6471 20.6018 11.3646C21.6702 10.7478 22.0363 9.38159 21.4194 8.31318L19.9031 5.68674C19.2863 4.6185 17.9204 4.25249 16.8521 4.86924C16.3633 5.15146 15.7519 4.79864 15.7519 4.23384C15.7519 3.00031 14.752 2.00008 13.5183 2.00008ZM9.66602 12C9.66602 10.7104 10.7114 9.665 12.001 9.665C13.2906 9.665 14.336 10.7104 14.336 12C14.336 13.2896 13.2906 14.335 12.001 14.335C10.7114 14.335 9.66602 13.2896 9.66602 12ZM12.001 8.165C9.88301 8.165 8.16602 9.88199 8.16602 12C8.16602 14.118 9.88301 15.835 12.001 15.835C14.119 15.835 15.836 14.118 15.836 12C15.836 9.88199 14.119 8.165 12.001 8.165Z" fill="#374151"/>
</svg>
