<svg width="24" height="24" viewBox="0 0 24 24" fill="none" xmlns="http://www.w3.org/2000/svg">
<g clip-path="url(#clip0_10129_75821)">
<path d="M10.8559 7.22101L11.5808 8.8816C12.2261 10.3593 13.3874 11.5356 14.836 12.1787L16.8316 13.0645C17.466 13.3461 17.466 14.2691 16.8316 14.5507L14.8983 15.4089C13.4124 16.0684 12.2303 17.2883 11.5961 18.8165L10.8617 20.5861C10.5892 21.2428 9.68181 21.2428 9.4093 20.5861L8.67488 18.8165C8.0407 17.2883 6.85854 16.0684 5.37267 15.4089L3.43941 14.5507C2.80495 14.2691 2.80494 13.3461 3.43941 13.0645L5.435 12.1787C6.88362 11.5356 8.04494 10.3593 8.69015 8.8816L9.41516 7.22101C9.69385 6.58277 10.5771 6.58277 10.8559 7.22101ZM18.1147 3.1779L18.3185 3.64522C18.682 4.47841 19.3367 5.14184 20.1535 5.50473L20.7817 5.78387C21.1214 5.93479 21.1214 6.42854 20.7817 6.57947L20.1887 6.84299C19.3508 7.21522 18.6844 7.90319 18.3271 8.76471L18.1178 9.2697C17.9718 9.62161 17.4853 9.62161 17.3393 9.2697L17.13 8.76471C16.7728 7.90319 16.1064 7.21522 15.2685 6.84299L14.6754 6.57947C14.3357 6.42854 14.3357 5.93479 14.6754 5.78387L15.3036 5.50473C16.1205 5.14184 16.7751 4.47841 17.1386 3.64522L17.3425 3.1779C17.4917 2.83582 17.9654 2.83582 18.1147 3.1779Z" stroke="#374151" stroke-width="1.5"/>
</g>
<defs>
<clipPath id="clip0_10129_75821">
<rect width="24" height="24" fill="white"/>
</clipPath>
</defs>
</svg>
