<svg width="24" height="24" viewBox="0 0 24 24" fill="none" xmlns="http://www.w3.org/2000/svg">
<path d="M14.6291 3.66573L16.1288 2.16573M19.6214 7.15863L21.1211 5.65863M16.5005 6.03765L20.8965 1.64255M6.81944 9.21684L4.03594 9.62131C2.80561 9.80009 2.31435 11.312 3.20462 12.1798L5.21878 14.1432C5.57231 14.4878 5.73363 14.9843 5.65017 15.4709L5.17469 18.2431C4.96453 19.4685 6.25068 20.4029 7.35112 19.8244L9.84075 18.5155C10.2777 18.2858 10.7998 18.2858 11.2368 18.5155L13.7264 19.8244C14.8268 20.4029 16.113 19.4685 15.9028 18.2431L15.4274 15.4709C15.3439 14.9843 15.5052 14.4878 15.8587 14.1432L17.8729 12.1798C18.7632 11.312 18.2719 9.80009 17.0416 9.62131L14.2581 9.21684C13.7695 9.14585 13.3472 8.839 13.1287 8.39628L11.8839 5.87401C11.3336 4.75914 9.74388 4.75914 9.19366 5.87401L7.94884 8.39628C7.73035 8.839 7.308 9.14585 6.81944 9.21684Z" stroke="#374151" stroke-width="1.5" stroke-linecap="round" stroke-linejoin="round"/>
</svg>
