<svg width="24" height="24" viewBox="0 0 24 24" fill="none" xmlns="http://www.w3.org/2000/svg">
<path fill-rule="evenodd" clip-rule="evenodd" d="M12 3.00015C12.2855 3.00015 12.5462 3.16222 12.6725 3.41822L15.1786 8.49601L20.7822 9.31027C21.0648 9.35132 21.2995 9.5492 21.3877 9.82071C21.4759 10.0922 21.4023 10.3903 21.1979 10.5895L17.1431 14.542L18.1003 20.1231C18.1485 20.4044 18.0329 20.6888 17.8019 20.8566C17.5709 21.0244 17.2648 21.0465 17.0121 20.9137L12 18.2787L6.98792 20.9137C6.73523 21.0465 6.42903 21.0244 6.19807 20.8566C5.96711 20.6888 5.85145 20.4044 5.89971 20.1231L6.85693 14.542L2.80207 10.5895C2.59765 10.3903 2.52407 10.0922 2.61229 9.82071C2.70051 9.5492 2.93522 9.35132 3.21773 9.31027L8.8214 8.49601L11.3274 3.41822C11.4538 3.16222 11.7145 3.00015 12 3.00015ZM12 5.44481L9.992 9.51344C9.88276 9.73479 9.67158 9.88822 9.4273 9.92372L4.9373 10.5762L8.1863 13.7431C8.36306 13.9154 8.44372 14.1637 8.40199 14.407L7.63501 18.8788L11.651 16.7675C11.8695 16.6526 12.1305 16.6526 12.349 16.7675L16.365 18.8788L15.598 14.407C15.5563 14.1637 15.6369 13.9154 15.8137 13.7431L19.0627 10.5762L14.5727 9.92372C14.3284 9.88822 14.1172 9.73479 14.008 9.51344L12 5.44481Z" fill="#374151"/>
</svg>
