<svg width="24" height="24" viewBox="0 0 24 24" fill="none" xmlns="http://www.w3.org/2000/svg">
<path fill-rule="evenodd" clip-rule="evenodd" d="M12 1.99965C12.4142 1.99965 12.75 2.33544 12.75 2.74965V4.24965C12.75 4.66386 12.4142 4.99965 12 4.99965C11.5858 4.99965 11.25 4.66386 11.25 4.24965V2.74965C11.25 2.33544 11.5858 1.99965 12 1.99965ZM12.0011 8.00177C9.79294 8.00177 8.00287 9.79184 8.00287 12C8.00287 14.2082 9.79294 15.9983 12.0011 15.9983C14.2093 15.9983 15.9994 14.2082 15.9994 12C15.9994 9.79184 14.2093 8.00177 12.0011 8.00177ZM6.50287 12C6.50287 8.96342 8.96452 6.50177 12.0011 6.50177C15.0377 6.50177 17.4994 8.96342 17.4994 12C17.4994 15.0366 15.0377 17.4983 12.0011 17.4983C8.96452 17.4983 6.50287 15.0366 6.50287 12ZM19.0716 5.9902C19.3645 5.69731 19.3645 5.22243 19.0716 4.92954C18.7787 4.63665 18.3038 4.63665 18.0109 4.92954L16.9502 5.9902C16.6573 6.28309 16.6573 6.75797 16.9502 7.05086C17.2431 7.34375 17.718 7.34375 18.0109 7.05086L19.0716 5.9902ZM21.9993 12C21.9993 12.4142 21.6635 12.75 21.2493 12.75H19.7493C19.3351 12.75 18.9993 12.4142 18.9993 12C18.9993 11.5858 19.3351 11.25 19.7493 11.25H21.2493C21.6635 11.25 21.9993 11.5858 21.9993 12ZM18.0109 19.0705C18.3038 19.3634 18.7787 19.3634 19.0716 19.0705C19.3645 18.7776 19.3645 18.3027 19.0716 18.0098L18.0109 16.9491C17.718 16.6562 17.2431 16.6562 16.9502 16.9491C16.6573 17.242 16.6573 17.7169 16.9502 18.0098L18.0109 19.0705ZM12 19.0004C12.4142 19.0004 12.75 19.3361 12.75 19.7504V21.2504C12.75 21.6646 12.4142 22.0004 12 22.0004C11.5858 22.0004 11.25 21.6646 11.25 21.2504V19.7504C11.25 19.3361 11.5858 19.0004 12 19.0004ZM7.05026 18.0104C7.34315 17.7176 7.34315 17.2427 7.05026 16.9498C6.75736 16.6569 6.28249 16.6569 5.9896 16.9498L4.92894 18.0104C4.63604 18.3033 4.63604 18.7782 4.92894 19.0711C5.22183 19.364 5.6967 19.364 5.9896 19.0711L7.05026 18.0104ZM5.00073 12C5.00073 12.4142 4.66495 12.75 4.25073 12.75H2.75073C2.33652 12.75 2.00073 12.4142 2.00073 12C2.00073 11.5858 2.33652 11.25 2.75073 11.25H4.25073C4.66495 11.25 5.00073 11.5858 5.00073 12ZM5.9896 7.05021C6.28249 7.34311 6.75736 7.34311 7.05026 7.05021C7.34315 6.75732 7.34315 6.28245 7.05026 5.98955L5.9896 4.92889C5.6967 4.636 5.22183 4.636 4.92894 4.92889C4.63604 5.22179 4.63604 5.69666 4.92894 5.98955L5.9896 7.05021Z" fill="#374151"/>
</svg>
