<svg width="24" height="24" viewBox="0 0 24 24" fill="none" xmlns="http://www.w3.org/2000/svg">
<path d="M5.54482 11.7254L8.80106 10.056C8.94001 9.98476 9.07094 9.89524 9.16633 9.77162C9.57725 9.23912 9.66716 8.51628 9.3836 7.89244L7.76232 4.32564C7.23237 3.15974 5.70104 2.88206 4.79545 3.78764L3.72726 4.85577C3.36119 5.22182 3.18185 5.73847 3.2737 6.24794C3.90114 9.72846 5.55997 13.0595 8.2502 15.7497C10.9404 18.44 14.2715 20.0988 17.752 20.7262C18.2615 20.8181 18.7781 20.6388 19.1442 20.2727L20.2123 19.2045C21.1179 18.2989 20.8402 16.7676 19.6743 16.2377L16.1075 14.6164C15.4837 14.3328 14.7609 14.4227 14.2284 14.8336C14.1047 14.929 14.0152 15.06 13.944 15.1989L12.2746 18.4552" stroke="#374151" stroke-width="1.5"/>
</svg>
