<svg width="24" height="24" viewBox="0 0 24 24" fill="none" xmlns="http://www.w3.org/2000/svg">
<path d="M20.0005 15.25C20.4147 15.2501 20.7505 15.5858 20.7505 16V18.5C20.7505 19.7426 19.7431 20.7499 18.5005 20.75H5.49951C4.25687 20.75 3.24951 19.7426 3.24951 18.5V16C3.24951 15.5858 3.5853 15.25 3.99951 15.25C4.41373 15.25 4.74951 15.5858 4.74951 16V18.5C4.74951 18.9142 5.0853 19.25 5.49951 19.25H18.5005C18.9147 19.2499 19.2505 18.9142 19.2505 18.5V16C19.2505 15.5858 19.5863 15.25 20.0005 15.25ZM12.0015 3.25C12.1781 3.25 12.3382 3.31389 12.4663 3.41602C12.4703 3.41918 12.4741 3.42253 12.478 3.42578C12.5049 3.44813 12.5307 3.47123 12.5542 3.49707L17.1548 8.09473C17.4474 8.38755 17.4474 8.86241 17.1548 9.15527C16.862 9.44783 16.3871 9.44781 16.0942 9.15527L12.7515 5.81348V16C12.7515 16.4142 12.4157 16.75 12.0015 16.75C11.5873 16.75 11.2515 16.4142 11.2515 16V5.80957L7.90479 9.15527C7.61191 9.44781 7.13702 9.44784 6.84424 9.15527C6.55158 8.86241 6.55164 8.38755 6.84424 8.09473L11.4692 3.47266C11.4739 3.46791 11.4791 3.4636 11.4839 3.45898C11.5117 3.43264 11.5403 3.408 11.5708 3.38672C11.6927 3.30093 11.841 3.25001 12.0015 3.25Z" fill="#374151"/>
</svg>
