<svg width="24" height="24" viewBox="0 0 24 24" fill="none" xmlns="http://www.w3.org/2000/svg">
<path fill-rule="evenodd" clip-rule="evenodd" d="M9.48029 7.41414C9.48029 5.80471 10.785 4.5 12.3944 4.5C14.0039 4.5 15.3086 5.80471 15.3086 7.41414C15.3086 9.02358 14.0039 10.3283 12.3944 10.3283C10.785 10.3283 9.48029 9.02358 9.48029 7.41414ZM12.3944 3C9.95656 3 7.98029 4.97628 7.98029 7.41414C7.98029 9.85201 9.95656 11.8283 12.3944 11.8283C14.8323 11.8283 16.8086 9.85201 16.8086 7.41414C16.8086 4.97628 14.8323 3 12.3944 3ZM10.7072 13.386C7.00293 13.386 4 16.389 4 20.0933V20.44C4 20.8542 4.33579 21.19 4.75 21.19C5.16421 21.19 5.5 20.8542 5.5 20.44V20.0933C5.5 17.2174 7.83136 14.886 10.7072 14.886H14.083C16.9589 14.886 19.2902 17.2174 19.2902 20.0933V20.44C19.2902 20.8542 19.626 21.19 20.0402 21.19C20.4544 21.19 20.7902 20.8542 20.7902 20.44V20.0933C20.7902 16.389 17.7873 13.386 14.083 13.386H10.7072Z" fill="#374151"/>
</svg>
