<svg width="24" height="24" viewBox="0 0 24 24" fill="none" xmlns="http://www.w3.org/2000/svg">
<path d="M14.0826 5.17697C14.4173 5.04144 14.7832 4.96681 15.1665 4.96681C16.7623 4.96681 18.0559 6.26044 18.0559 7.85621C18.0559 9.45198 16.7623 10.7456 15.1665 10.7456C14.7832 10.7456 14.4173 10.671 14.0826 10.5354M16.4665 13.1563H16.842C19.2762 13.1563 21.2496 15.1296 21.2496 17.5638C21.2496 18.3752 20.5918 19.033 19.7804 19.033H17.6697M11.7261 7.8562C11.7261 9.45197 10.4324 10.7456 8.83665 10.7456C7.24088 10.7456 5.94725 9.45197 5.94725 7.8562C5.94725 6.26043 7.24088 4.9668 8.83665 4.9668C10.4324 4.9668 11.7261 6.26043 11.7261 7.8562ZM4.22309 19.033H13.4506C14.262 19.033 14.9197 18.3752 14.9197 17.5638C14.9197 15.1296 12.9464 13.1563 10.5122 13.1563H7.16147C4.72724 13.1563 2.75391 15.1296 2.75391 17.5638C2.75391 18.3752 3.41168 19.033 4.22309 19.033Z" stroke="#374151" stroke-width="1.5" stroke-linecap="round" stroke-linejoin="round"/>
</svg>
