<svg width="24" height="24" viewBox="0 0 24 24" fill="none" xmlns="http://www.w3.org/2000/svg">
<path fill-rule="evenodd" clip-rule="evenodd" d="M4.25 5.25C3.00736 5.25 2 6.25736 2 7.5V16.5C2 17.7426 3.00736 18.75 4.25 18.75H15.25C16.4926 18.75 17.5 17.7426 17.5 16.5V15.3957L20.1118 16.9465C20.9451 17.4412 22 16.8407 22 15.8716V8.12838C22 7.15933 20.9451 6.55882 20.1118 7.05356L17.5 8.60433V7.5C17.5 6.25736 16.4926 5.25 15.25 5.25H4.25ZM17.5 10.3488V13.6512L20.5 15.4325V8.56756L17.5 10.3488ZM3.5 7.5C3.5 7.08579 3.83579 6.75 4.25 6.75H15.25C15.6642 6.75 16 7.08579 16 7.5V16.5C16 16.9142 15.6642 17.25 15.25 17.25H4.25C3.83579 17.25 3.5 16.9142 3.5 16.5V7.5Z" fill="#374151"/>
</svg>
