<svg width="24" height="24" viewBox="0 0 24 24" fill="none" xmlns="http://www.w3.org/2000/svg">
<path d="M21.9676 11.5161C21.9676 8.3871 21.9676 5.16132 21.9676 2.03232C18.3225 2.51619 14.7096 3.03231 11.0322 3.61295C11.0322 6.29035 11.0322 8.96774 11.0322 11.5806C14.7096 11.5484 18.3225 11.5484 21.9676 11.5161Z" fill="#374151"/>
<path d="M2 4.96769V11.6773C4.6774 11.6773 7.45157 11.6451 10.129 11.6451C10.129 8.99992 10.129 6.48381 10.129 3.83868C7.45157 4.19351 4.6774 4.54835 2 4.96769Z" fill="#374151"/>
<path d="M2 12.4516V19.1612C4.6774 19.516 7.45157 19.8709 10.129 20.2579C10.129 17.6773 10.129 15.0967 10.129 12.5161C7.45157 12.4516 4.6774 12.4516 2 12.4516Z" fill="#374151"/>
<path d="M11.1291 12.5807C11.1614 15.2258 11.1614 17.8064 11.1614 20.4193C14.7742 20.9032 18.3871 21.4193 22 21.9677C22 18.8387 22 15.7097 22 12.5807C18.3226 12.5807 14.7097 12.5807 11.1291 12.5807Z" fill="#374151"/>
</svg>
